%TF.GenerationSoftware,KiCad,Pcbnew,(5.1.4)-1*%
%TF.CreationDate,2025-05-10T17:32:09-04:00*%
%TF.ProjectId,PMW3360,504d5733-3336-4302-9e6b-696361645f70,rev?*%
%TF.SameCoordinates,Original*%
%TF.FileFunction,Legend,Top*%
%TF.FilePolarity,Positive*%
%FSLAX46Y46*%
G04 Gerber Fmt 4.6, Leading zero omitted, Abs format (unit mm)*
G04 Created by KiCad (PCBNEW (5.1.4)-1) date 2025-05-10 17:32:09*
%MOMM*%
%LPD*%
G04 APERTURE LIST*
%ADD10C,0.150000*%
%ADD11C,0.120000*%
%ADD12C,0.100000*%
%ADD13C,0.400000*%
%ADD14C,0.254000*%
%ADD15C,2.200000*%
%ADD16R,0.800000X1.500000*%
%ADD17R,0.600000X1.500000*%
%ADD18C,1.200000*%
%ADD19R,1.200000X1.200000*%
%ADD20R,1.060000X0.650000*%
%ADD21C,0.800000*%
%ADD22C,0.900000*%
G04 APERTURE END LIST*
D10*
X162532380Y-104859285D02*
X162532380Y-104192619D01*
X163532380Y-104621190D01*
X163437142Y-103811666D02*
X163484761Y-103764047D01*
X163532380Y-103811666D01*
X163484761Y-103859285D01*
X163437142Y-103811666D01*
X163532380Y-103811666D01*
X162532380Y-103430714D02*
X162532380Y-102811666D01*
X162913333Y-103145000D01*
X162913333Y-103002142D01*
X162960952Y-102906904D01*
X163008571Y-102859285D01*
X163103809Y-102811666D01*
X163341904Y-102811666D01*
X163437142Y-102859285D01*
X163484761Y-102906904D01*
X163532380Y-103002142D01*
X163532380Y-103287857D01*
X163484761Y-103383095D01*
X163437142Y-103430714D01*
X163532380Y-102335476D02*
X163532380Y-102145000D01*
X163484761Y-102049761D01*
X163437142Y-102002142D01*
X163294285Y-101906904D01*
X163103809Y-101859285D01*
X162722857Y-101859285D01*
X162627619Y-101906904D01*
X162580000Y-101954523D01*
X162532380Y-102049761D01*
X162532380Y-102240238D01*
X162580000Y-102335476D01*
X162627619Y-102383095D01*
X162722857Y-102430714D01*
X162960952Y-102430714D01*
X163056190Y-102383095D01*
X163103809Y-102335476D01*
X163151428Y-102240238D01*
X163151428Y-102049761D01*
X163103809Y-101954523D01*
X163056190Y-101906904D01*
X162960952Y-101859285D01*
X162532380Y-101240238D02*
X162532380Y-101145000D01*
X162580000Y-101049761D01*
X162627619Y-101002142D01*
X162722857Y-100954523D01*
X162913333Y-100906904D01*
X163151428Y-100906904D01*
X163341904Y-100954523D01*
X163437142Y-101002142D01*
X163484761Y-101049761D01*
X163532380Y-101145000D01*
X163532380Y-101240238D01*
X163484761Y-101335476D01*
X163437142Y-101383095D01*
X163341904Y-101430714D01*
X163151428Y-101478333D01*
X162913333Y-101478333D01*
X162722857Y-101430714D01*
X162627619Y-101383095D01*
X162580000Y-101335476D01*
X162532380Y-101240238D01*
X163532380Y-99716428D02*
X162865714Y-99716428D01*
X162960952Y-99716428D02*
X162913333Y-99668809D01*
X162865714Y-99573571D01*
X162865714Y-99430714D01*
X162913333Y-99335476D01*
X163008571Y-99287857D01*
X163532380Y-99287857D01*
X163008571Y-99287857D02*
X162913333Y-99240238D01*
X162865714Y-99145000D01*
X162865714Y-99002142D01*
X162913333Y-98906904D01*
X163008571Y-98859285D01*
X163532380Y-98859285D01*
X163532380Y-98383095D02*
X162865714Y-98383095D01*
X162960952Y-98383095D02*
X162913333Y-98335476D01*
X162865714Y-98240238D01*
X162865714Y-98097380D01*
X162913333Y-98002142D01*
X163008571Y-97954523D01*
X163532380Y-97954523D01*
X163008571Y-97954523D02*
X162913333Y-97906904D01*
X162865714Y-97811666D01*
X162865714Y-97668809D01*
X162913333Y-97573571D01*
X163008571Y-97525952D01*
X163532380Y-97525952D01*
D11*
X161810000Y-104840000D02*
X161810000Y-97450000D01*
X159080000Y-104840000D02*
X162396421Y-104840000D01*
X159080000Y-97450000D02*
X162396421Y-97450000D01*
X161810000Y-97450000D02*
X162396421Y-98576504D01*
X161810000Y-97450000D02*
X161223579Y-98576504D01*
X161810000Y-104840000D02*
X162396421Y-103713496D01*
X161810000Y-104840000D02*
X161223579Y-103713496D01*
D10*
X155297619Y-102745714D02*
X155297619Y-103364761D01*
X154916666Y-103031428D01*
X154916666Y-103174285D01*
X154869047Y-103269523D01*
X154821428Y-103317142D01*
X154726190Y-103364761D01*
X154488095Y-103364761D01*
X154392857Y-103317142D01*
X154345238Y-103269523D01*
X154297619Y-103174285D01*
X154297619Y-102888571D01*
X154345238Y-102793333D01*
X154392857Y-102745714D01*
X154392857Y-103793333D02*
X154345238Y-103840952D01*
X154297619Y-103793333D01*
X154345238Y-103745714D01*
X154392857Y-103793333D01*
X154297619Y-103793333D01*
X155202380Y-104221904D02*
X155250000Y-104269523D01*
X155297619Y-104364761D01*
X155297619Y-104602857D01*
X155250000Y-104698095D01*
X155202380Y-104745714D01*
X155107142Y-104793333D01*
X155011904Y-104793333D01*
X154869047Y-104745714D01*
X154297619Y-104174285D01*
X154297619Y-104793333D01*
X155297619Y-105412380D02*
X155297619Y-105507619D01*
X155250000Y-105602857D01*
X155202380Y-105650476D01*
X155107142Y-105698095D01*
X154916666Y-105745714D01*
X154678571Y-105745714D01*
X154488095Y-105698095D01*
X154392857Y-105650476D01*
X154345238Y-105602857D01*
X154297619Y-105507619D01*
X154297619Y-105412380D01*
X154345238Y-105317142D01*
X154392857Y-105269523D01*
X154488095Y-105221904D01*
X154678571Y-105174285D01*
X154916666Y-105174285D01*
X155107142Y-105221904D01*
X155202380Y-105269523D01*
X155250000Y-105317142D01*
X155297619Y-105412380D01*
X155297619Y-106364761D02*
X155297619Y-106460000D01*
X155250000Y-106555238D01*
X155202380Y-106602857D01*
X155107142Y-106650476D01*
X154916666Y-106698095D01*
X154678571Y-106698095D01*
X154488095Y-106650476D01*
X154392857Y-106602857D01*
X154345238Y-106555238D01*
X154297619Y-106460000D01*
X154297619Y-106364761D01*
X154345238Y-106269523D01*
X154392857Y-106221904D01*
X154488095Y-106174285D01*
X154678571Y-106126666D01*
X154916666Y-106126666D01*
X155107142Y-106174285D01*
X155202380Y-106221904D01*
X155250000Y-106269523D01*
X155297619Y-106364761D01*
X154297619Y-107888571D02*
X154964285Y-107888571D01*
X154869047Y-107888571D02*
X154916666Y-107936190D01*
X154964285Y-108031428D01*
X154964285Y-108174285D01*
X154916666Y-108269523D01*
X154821428Y-108317142D01*
X154297619Y-108317142D01*
X154821428Y-108317142D02*
X154916666Y-108364761D01*
X154964285Y-108460000D01*
X154964285Y-108602857D01*
X154916666Y-108698095D01*
X154821428Y-108745714D01*
X154297619Y-108745714D01*
X154297619Y-109221904D02*
X154964285Y-109221904D01*
X154869047Y-109221904D02*
X154916666Y-109269523D01*
X154964285Y-109364761D01*
X154964285Y-109507619D01*
X154916666Y-109602857D01*
X154821428Y-109650476D01*
X154297619Y-109650476D01*
X154821428Y-109650476D02*
X154916666Y-109698095D01*
X154964285Y-109793333D01*
X154964285Y-109936190D01*
X154916666Y-110031428D01*
X154821428Y-110079047D01*
X154297619Y-110079047D01*
D11*
X156020000Y-104860000D02*
X156020000Y-108060000D01*
X159040000Y-104860000D02*
X155433579Y-104860000D01*
X159040000Y-108060000D02*
X155433579Y-108060000D01*
X156020000Y-108060000D02*
X155433579Y-106933496D01*
X156020000Y-108060000D02*
X156606421Y-106933496D01*
X156020000Y-104860000D02*
X155433579Y-105986504D01*
X156020000Y-104860000D02*
X156606421Y-105986504D01*
X173950000Y-108050000D02*
X157950000Y-108050000D01*
D10*
X148004807Y-95480200D02*
X147433379Y-95479819D01*
X147719093Y-95480010D02*
X147719760Y-94480010D01*
X147624426Y-94622804D01*
X147529125Y-94717978D01*
X147433855Y-94765534D01*
X148910236Y-94480804D02*
X148434045Y-94480486D01*
X148386109Y-94956645D01*
X148433759Y-94909058D01*
X148529029Y-94861502D01*
X148767124Y-94861661D01*
X148862331Y-94909343D01*
X148909918Y-94956994D01*
X148957474Y-95052264D01*
X148957315Y-95290359D01*
X148909632Y-95385566D01*
X148861982Y-95433153D01*
X148766712Y-95480708D01*
X148528617Y-95480550D01*
X148433410Y-95432867D01*
X148385823Y-95385216D01*
X149385823Y-95385883D02*
X149433410Y-95433534D01*
X149385759Y-95481121D01*
X149338172Y-95433470D01*
X149385823Y-95385883D01*
X149385759Y-95481121D01*
X150053092Y-94481566D02*
X150148330Y-94481629D01*
X150243537Y-94529312D01*
X150291124Y-94576963D01*
X150338680Y-94672232D01*
X150386172Y-94862740D01*
X150386013Y-95100835D01*
X150338267Y-95291280D01*
X150290584Y-95386486D01*
X150242934Y-95434073D01*
X150147664Y-95481629D01*
X150052426Y-95481565D01*
X149957219Y-95433883D01*
X149909632Y-95386232D01*
X149862077Y-95290962D01*
X149814585Y-95100454D01*
X149814743Y-94862359D01*
X149862489Y-94671915D01*
X149910172Y-94576709D01*
X149957823Y-94529121D01*
X150053092Y-94481566D01*
X151005473Y-94482201D02*
X151100711Y-94482264D01*
X151195918Y-94529947D01*
X151243505Y-94577597D01*
X151291060Y-94672867D01*
X151338552Y-94863375D01*
X151338394Y-95101470D01*
X151290648Y-95291915D01*
X151242965Y-95387121D01*
X151195314Y-95434708D01*
X151100045Y-95482264D01*
X151004806Y-95482200D01*
X150909600Y-95434518D01*
X150862013Y-95386867D01*
X150814457Y-95291597D01*
X150766965Y-95101089D01*
X150767124Y-94862994D01*
X150814870Y-94672550D01*
X150862553Y-94577343D01*
X150910203Y-94529756D01*
X151005473Y-94482201D01*
X151957854Y-94482836D02*
X152053092Y-94482899D01*
X152148298Y-94530582D01*
X152195886Y-94578232D01*
X152243441Y-94673502D01*
X152290933Y-94864010D01*
X152290774Y-95102105D01*
X152243028Y-95292550D01*
X152195346Y-95387756D01*
X152147695Y-95435343D01*
X152052425Y-95482899D01*
X151957187Y-95482835D01*
X151861981Y-95435153D01*
X151814394Y-95387502D01*
X151766838Y-95292232D01*
X151719346Y-95101724D01*
X151719505Y-94863629D01*
X151767251Y-94673185D01*
X151814933Y-94577978D01*
X151862584Y-94530391D01*
X151957854Y-94482836D01*
X153480996Y-95483851D02*
X153481441Y-94817185D01*
X153481377Y-94912423D02*
X153529028Y-94864835D01*
X153624298Y-94817280D01*
X153767155Y-94817375D01*
X153862361Y-94865058D01*
X153909917Y-94960327D01*
X153909568Y-95484137D01*
X153909917Y-94960327D02*
X153957599Y-94865121D01*
X154052869Y-94817566D01*
X154195726Y-94817661D01*
X154290933Y-94865343D01*
X154338488Y-94960613D01*
X154338139Y-95484423D01*
X154814329Y-95484740D02*
X154814774Y-94818074D01*
X154814710Y-94913312D02*
X154862361Y-94865724D01*
X154957631Y-94818169D01*
X155100488Y-94818264D01*
X155195694Y-94865947D01*
X155243250Y-94961216D01*
X155242901Y-95485026D01*
X155243250Y-94961216D02*
X155290932Y-94866010D01*
X155386202Y-94818455D01*
X155529059Y-94818550D01*
X155624266Y-94866232D01*
X155671821Y-94961502D01*
X155671472Y-95485312D01*
D11*
X159075690Y-96305201D02*
X144075690Y-96295201D01*
X159070000Y-104840000D02*
X159076081Y-95718780D01*
X144070000Y-104830000D02*
X144076081Y-95708780D01*
X144075690Y-96295201D02*
X145202584Y-95709531D01*
X144075690Y-96295201D02*
X145201803Y-96882373D01*
X159075690Y-96305201D02*
X157949577Y-95718029D01*
X159075690Y-96305201D02*
X157948796Y-96890871D01*
X144070000Y-107990000D02*
X144070000Y-101200000D01*
D10*
X146537128Y-93330885D02*
X145965700Y-93331204D01*
X146251414Y-93331044D02*
X146250855Y-92331045D01*
X146155697Y-92473955D01*
X146060512Y-92569246D01*
X145965301Y-92616919D01*
X146869903Y-92330699D02*
X147536569Y-92330326D01*
X147108557Y-93330565D01*
X147918027Y-93234875D02*
X147965673Y-93282467D01*
X147918081Y-93330113D01*
X147870435Y-93282520D01*
X147918027Y-93234875D01*
X147918081Y-93330113D01*
X148536809Y-92758338D02*
X148441544Y-92710772D01*
X148393898Y-92663180D01*
X148346226Y-92567969D01*
X148346199Y-92520350D01*
X148393765Y-92425085D01*
X148441358Y-92377439D01*
X148536569Y-92329767D01*
X148727045Y-92329660D01*
X148822310Y-92377226D01*
X148869956Y-92424819D01*
X148917628Y-92520030D01*
X148917654Y-92567649D01*
X148870089Y-92662914D01*
X148822496Y-92710560D01*
X148727285Y-92758232D01*
X148536809Y-92758338D01*
X148441597Y-92806011D01*
X148394005Y-92853656D01*
X148346439Y-92948921D01*
X148346545Y-93139397D01*
X148394218Y-93234609D01*
X148441863Y-93282201D01*
X148537128Y-93329767D01*
X148727604Y-93329660D01*
X148822816Y-93281988D01*
X148870408Y-93234342D01*
X148917974Y-93139078D01*
X148917867Y-92948602D01*
X148870195Y-92853390D01*
X148822549Y-92805798D01*
X148727285Y-92758232D01*
X149394271Y-93329288D02*
X149584747Y-93329181D01*
X149679958Y-93281509D01*
X149727551Y-93233863D01*
X149822709Y-93090953D01*
X149870222Y-92900450D01*
X149870009Y-92519498D01*
X149822336Y-92424286D01*
X149774691Y-92376694D01*
X149679426Y-92329128D01*
X149488950Y-92329235D01*
X149393738Y-92376907D01*
X149346146Y-92424553D01*
X149298580Y-92519817D01*
X149298713Y-92757912D01*
X149346386Y-92853124D01*
X149394031Y-92900716D01*
X149489296Y-92948282D01*
X149679772Y-92948176D01*
X149774984Y-92900503D01*
X149822576Y-92852858D01*
X149870142Y-92757593D01*
X150488950Y-92328676D02*
X150584188Y-92328622D01*
X150679452Y-92376188D01*
X150727098Y-92423781D01*
X150774770Y-92518992D01*
X150822496Y-92709442D01*
X150822629Y-92947537D01*
X150775116Y-93138040D01*
X150727551Y-93233304D01*
X150679958Y-93280950D01*
X150584747Y-93328622D01*
X150489509Y-93328675D01*
X150394244Y-93281110D01*
X150346598Y-93233517D01*
X150298926Y-93138306D01*
X150251201Y-92947856D01*
X150251067Y-92709761D01*
X150298580Y-92519258D01*
X150346146Y-92423994D01*
X150393738Y-92376348D01*
X150488950Y-92328676D01*
X152013318Y-93327824D02*
X152012945Y-92661157D01*
X152012999Y-92756395D02*
X152060591Y-92708750D01*
X152155802Y-92661077D01*
X152298660Y-92660997D01*
X152393924Y-92708563D01*
X152441597Y-92803775D01*
X152441889Y-93327584D01*
X152441597Y-92803775D02*
X152489162Y-92708510D01*
X152584374Y-92660838D01*
X152727231Y-92660758D01*
X152822496Y-92708324D01*
X152870168Y-92803535D01*
X152870461Y-93327345D01*
X153346651Y-93327078D02*
X153346278Y-92660412D01*
X153346332Y-92755650D02*
X153393924Y-92708004D01*
X153489136Y-92660332D01*
X153631993Y-92660252D01*
X153727257Y-92707818D01*
X153774930Y-92803029D01*
X153775222Y-93326839D01*
X153774930Y-92803029D02*
X153822495Y-92707765D01*
X153917707Y-92660092D01*
X154060564Y-92660013D01*
X154155829Y-92707578D01*
X154203501Y-92802790D01*
X154203794Y-93326599D01*
D11*
X159054014Y-94141508D02*
X141164014Y-94151508D01*
X159060000Y-104850000D02*
X159053686Y-93555087D01*
X141170000Y-104860000D02*
X141163686Y-93565087D01*
X141164014Y-94151508D02*
X142290190Y-93564458D01*
X141164014Y-94151508D02*
X142290845Y-94737299D01*
X159054014Y-94141508D02*
X157927183Y-93555717D01*
X159054014Y-94141508D02*
X157927838Y-94728558D01*
D10*
X157483333Y-89965714D02*
X157483333Y-90632380D01*
X157245238Y-89584761D02*
X157007142Y-90299047D01*
X157626190Y-90299047D01*
X158197619Y-89632380D02*
X158292857Y-89632380D01*
X158388095Y-89680000D01*
X158435714Y-89727619D01*
X158483333Y-89822857D01*
X158530952Y-90013333D01*
X158530952Y-90251428D01*
X158483333Y-90441904D01*
X158435714Y-90537142D01*
X158388095Y-90584761D01*
X158292857Y-90632380D01*
X158197619Y-90632380D01*
X158102380Y-90584761D01*
X158054761Y-90537142D01*
X158007142Y-90441904D01*
X157959523Y-90251428D01*
X157959523Y-90013333D01*
X158007142Y-89822857D01*
X158054761Y-89727619D01*
X158102380Y-89680000D01*
X158197619Y-89632380D01*
X158959523Y-90537142D02*
X159007142Y-90584761D01*
X158959523Y-90632380D01*
X158911904Y-90584761D01*
X158959523Y-90537142D01*
X158959523Y-90632380D01*
X159626190Y-89632380D02*
X159721428Y-89632380D01*
X159816666Y-89680000D01*
X159864285Y-89727619D01*
X159911904Y-89822857D01*
X159959523Y-90013333D01*
X159959523Y-90251428D01*
X159911904Y-90441904D01*
X159864285Y-90537142D01*
X159816666Y-90584761D01*
X159721428Y-90632380D01*
X159626190Y-90632380D01*
X159530952Y-90584761D01*
X159483333Y-90537142D01*
X159435714Y-90441904D01*
X159388095Y-90251428D01*
X159388095Y-90013333D01*
X159435714Y-89822857D01*
X159483333Y-89727619D01*
X159530952Y-89680000D01*
X159626190Y-89632380D01*
X160578571Y-89632380D02*
X160673809Y-89632380D01*
X160769047Y-89680000D01*
X160816666Y-89727619D01*
X160864285Y-89822857D01*
X160911904Y-90013333D01*
X160911904Y-90251428D01*
X160864285Y-90441904D01*
X160816666Y-90537142D01*
X160769047Y-90584761D01*
X160673809Y-90632380D01*
X160578571Y-90632380D01*
X160483333Y-90584761D01*
X160435714Y-90537142D01*
X160388095Y-90441904D01*
X160340476Y-90251428D01*
X160340476Y-90013333D01*
X160388095Y-89822857D01*
X160435714Y-89727619D01*
X160483333Y-89680000D01*
X160578571Y-89632380D01*
X161530952Y-89632380D02*
X161626190Y-89632380D01*
X161721428Y-89680000D01*
X161769047Y-89727619D01*
X161816666Y-89822857D01*
X161864285Y-90013333D01*
X161864285Y-90251428D01*
X161816666Y-90441904D01*
X161769047Y-90537142D01*
X161721428Y-90584761D01*
X161626190Y-90632380D01*
X161530952Y-90632380D01*
X161435714Y-90584761D01*
X161388095Y-90537142D01*
X161340476Y-90441904D01*
X161292857Y-90251428D01*
X161292857Y-90013333D01*
X161340476Y-89822857D01*
X161388095Y-89727619D01*
X161435714Y-89680000D01*
X161530952Y-89632380D01*
X163054761Y-90632380D02*
X163054761Y-89965714D01*
X163054761Y-90060952D02*
X163102380Y-90013333D01*
X163197619Y-89965714D01*
X163340476Y-89965714D01*
X163435714Y-90013333D01*
X163483333Y-90108571D01*
X163483333Y-90632380D01*
X163483333Y-90108571D02*
X163530952Y-90013333D01*
X163626190Y-89965714D01*
X163769047Y-89965714D01*
X163864285Y-90013333D01*
X163911904Y-90108571D01*
X163911904Y-90632380D01*
X164388095Y-90632380D02*
X164388095Y-89965714D01*
X164388095Y-90060952D02*
X164435714Y-90013333D01*
X164530952Y-89965714D01*
X164673809Y-89965714D01*
X164769047Y-90013333D01*
X164816666Y-90108571D01*
X164816666Y-90632380D01*
X164816666Y-90108571D02*
X164864285Y-90013333D01*
X164959523Y-89965714D01*
X165102380Y-89965714D01*
X165197619Y-90013333D01*
X165245238Y-90108571D01*
X165245238Y-90632380D01*
D11*
X141150000Y-91450000D02*
X181150000Y-91450000D01*
X141150000Y-99450000D02*
X141150000Y-90863579D01*
X181150000Y-99450000D02*
X181150000Y-90863579D01*
X181150000Y-91450000D02*
X180023496Y-92036421D01*
X181150000Y-91450000D02*
X180023496Y-90863579D01*
X141150000Y-91450000D02*
X142276504Y-92036421D01*
X141150000Y-91450000D02*
X142276504Y-90863579D01*
D10*
X185467615Y-101378571D02*
X185467615Y-100807142D01*
X185467615Y-101092857D02*
X186467615Y-101092857D01*
X186324757Y-100997619D01*
X186229519Y-100902380D01*
X186181900Y-100807142D01*
X186467615Y-102283333D02*
X186467615Y-101807142D01*
X185991424Y-101759523D01*
X186039043Y-101807142D01*
X186086662Y-101902380D01*
X186086662Y-102140476D01*
X186039043Y-102235714D01*
X185991424Y-102283333D01*
X185896186Y-102330952D01*
X185658091Y-102330952D01*
X185562853Y-102283333D01*
X185515234Y-102235714D01*
X185467615Y-102140476D01*
X185467615Y-101902380D01*
X185515234Y-101807142D01*
X185562853Y-101759523D01*
X185562853Y-102759523D02*
X185515234Y-102807142D01*
X185467615Y-102759523D01*
X185515234Y-102711904D01*
X185562853Y-102759523D01*
X185467615Y-102759523D01*
X186467615Y-103426190D02*
X186467615Y-103521428D01*
X186419996Y-103616666D01*
X186372376Y-103664285D01*
X186277138Y-103711904D01*
X186086662Y-103759523D01*
X185848567Y-103759523D01*
X185658091Y-103711904D01*
X185562853Y-103664285D01*
X185515234Y-103616666D01*
X185467615Y-103521428D01*
X185467615Y-103426190D01*
X185515234Y-103330952D01*
X185562853Y-103283333D01*
X185658091Y-103235714D01*
X185848567Y-103188095D01*
X186086662Y-103188095D01*
X186277138Y-103235714D01*
X186372376Y-103283333D01*
X186419996Y-103330952D01*
X186467615Y-103426190D01*
X186467615Y-104378571D02*
X186467615Y-104473809D01*
X186419996Y-104569047D01*
X186372376Y-104616666D01*
X186277138Y-104664285D01*
X186086662Y-104711904D01*
X185848567Y-104711904D01*
X185658091Y-104664285D01*
X185562853Y-104616666D01*
X185515234Y-104569047D01*
X185467615Y-104473809D01*
X185467615Y-104378571D01*
X185515234Y-104283333D01*
X185562853Y-104235714D01*
X185658091Y-104188095D01*
X185848567Y-104140476D01*
X186086662Y-104140476D01*
X186277138Y-104188095D01*
X186372376Y-104235714D01*
X186419996Y-104283333D01*
X186467615Y-104378571D01*
X186467615Y-105330952D02*
X186467615Y-105426190D01*
X186419996Y-105521428D01*
X186372376Y-105569047D01*
X186277138Y-105616666D01*
X186086662Y-105664285D01*
X185848567Y-105664285D01*
X185658091Y-105616666D01*
X185562853Y-105569047D01*
X185515234Y-105521428D01*
X185467615Y-105426190D01*
X185467615Y-105330952D01*
X185515234Y-105235714D01*
X185562853Y-105188095D01*
X185658091Y-105140476D01*
X185848567Y-105092857D01*
X186086662Y-105092857D01*
X186277138Y-105140476D01*
X186372376Y-105188095D01*
X186419996Y-105235714D01*
X186467615Y-105330952D01*
X185467615Y-106854761D02*
X186134281Y-106854761D01*
X186039043Y-106854761D02*
X186086662Y-106902380D01*
X186134281Y-106997619D01*
X186134281Y-107140476D01*
X186086662Y-107235714D01*
X185991424Y-107283333D01*
X185467615Y-107283333D01*
X185991424Y-107283333D02*
X186086662Y-107330952D01*
X186134281Y-107426190D01*
X186134281Y-107569047D01*
X186086662Y-107664285D01*
X185991424Y-107711904D01*
X185467615Y-107711904D01*
X185467615Y-108188095D02*
X186134281Y-108188095D01*
X186039043Y-108188095D02*
X186086662Y-108235714D01*
X186134281Y-108330952D01*
X186134281Y-108473809D01*
X186086662Y-108569047D01*
X185991424Y-108616666D01*
X185467615Y-108616666D01*
X185991424Y-108616666D02*
X186086662Y-108664285D01*
X186134281Y-108759523D01*
X186134281Y-108902380D01*
X186086662Y-108997619D01*
X185991424Y-109045238D01*
X185467615Y-109045238D01*
D11*
X184649996Y-97450000D02*
X184649996Y-112450000D01*
X179150000Y-97450000D02*
X185236417Y-97450000D01*
X179150000Y-112450000D02*
X185236417Y-112450000D01*
X184649996Y-112450000D02*
X184063575Y-111323496D01*
X184649996Y-112450000D02*
X185236417Y-111323496D01*
X184649996Y-97450000D02*
X184063575Y-98576504D01*
X184649996Y-97450000D02*
X185236417Y-98576504D01*
D12*
X176526190Y-99280952D02*
X176026190Y-99280952D01*
X176526190Y-98995238D01*
X176026190Y-98995238D01*
X176478571Y-98471428D02*
X176502380Y-98495238D01*
X176526190Y-98566666D01*
X176526190Y-98614285D01*
X176502380Y-98685714D01*
X176454761Y-98733333D01*
X176407142Y-98757142D01*
X176311904Y-98780952D01*
X176240476Y-98780952D01*
X176145238Y-98757142D01*
X176097619Y-98733333D01*
X176050000Y-98685714D01*
X176026190Y-98614285D01*
X176026190Y-98566666D01*
X176050000Y-98495238D01*
X176073809Y-98471428D01*
X176502380Y-98280952D02*
X176526190Y-98209523D01*
X176526190Y-98090476D01*
X176502380Y-98042857D01*
X176478571Y-98019047D01*
X176430952Y-97995238D01*
X176383333Y-97995238D01*
X176335714Y-98019047D01*
X176311904Y-98042857D01*
X176288095Y-98090476D01*
X176264285Y-98185714D01*
X176240476Y-98233333D01*
X176216666Y-98257142D01*
X176169047Y-98280952D01*
X176121428Y-98280952D01*
X176073809Y-98257142D01*
X176050000Y-98233333D01*
X176026190Y-98185714D01*
X176026190Y-98066666D01*
X176050000Y-97995238D01*
X178126190Y-99119047D02*
X178126190Y-98809523D01*
X178316666Y-98976190D01*
X178316666Y-98904761D01*
X178340476Y-98857142D01*
X178364285Y-98833333D01*
X178411904Y-98809523D01*
X178530952Y-98809523D01*
X178578571Y-98833333D01*
X178602380Y-98857142D01*
X178626190Y-98904761D01*
X178626190Y-99047619D01*
X178602380Y-99095238D01*
X178578571Y-99119047D01*
X178126190Y-98666666D02*
X178626190Y-98500000D01*
X178126190Y-98333333D01*
X178126190Y-98214285D02*
X178126190Y-97904761D01*
X178316666Y-98071428D01*
X178316666Y-98000000D01*
X178340476Y-97952380D01*
X178364285Y-97928571D01*
X178411904Y-97904761D01*
X178530952Y-97904761D01*
X178578571Y-97928571D01*
X178602380Y-97952380D01*
X178626190Y-98000000D01*
X178626190Y-98142857D01*
X178602380Y-98190476D01*
X178578571Y-98214285D01*
X178150000Y-105880952D02*
X178126190Y-105928571D01*
X178126190Y-106000000D01*
X178150000Y-106071428D01*
X178197619Y-106119047D01*
X178245238Y-106142857D01*
X178340476Y-106166666D01*
X178411904Y-106166666D01*
X178507142Y-106142857D01*
X178554761Y-106119047D01*
X178602380Y-106071428D01*
X178626190Y-106000000D01*
X178626190Y-105952380D01*
X178602380Y-105880952D01*
X178578571Y-105857142D01*
X178411904Y-105857142D01*
X178411904Y-105952380D01*
X178626190Y-105642857D02*
X178126190Y-105642857D01*
X178626190Y-105357142D01*
X178126190Y-105357142D01*
X178626190Y-105119047D02*
X178126190Y-105119047D01*
X178126190Y-105000000D01*
X178150000Y-104928571D01*
X178197619Y-104880952D01*
X178245238Y-104857142D01*
X178340476Y-104833333D01*
X178411904Y-104833333D01*
X178507142Y-104857142D01*
X178554761Y-104880952D01*
X178602380Y-104928571D01*
X178626190Y-105000000D01*
X178626190Y-105119047D01*
X174576190Y-99385714D02*
X174076190Y-99385714D01*
X174433333Y-99219047D01*
X174076190Y-99052380D01*
X174576190Y-99052380D01*
X174076190Y-98719047D02*
X174076190Y-98623809D01*
X174100000Y-98576190D01*
X174147619Y-98528571D01*
X174242857Y-98504761D01*
X174409523Y-98504761D01*
X174504761Y-98528571D01*
X174552380Y-98576190D01*
X174576190Y-98623809D01*
X174576190Y-98719047D01*
X174552380Y-98766666D01*
X174504761Y-98814285D01*
X174409523Y-98838095D01*
X174242857Y-98838095D01*
X174147619Y-98814285D01*
X174100000Y-98766666D01*
X174076190Y-98719047D01*
X174552380Y-98314285D02*
X174576190Y-98242857D01*
X174576190Y-98123809D01*
X174552380Y-98076190D01*
X174528571Y-98052380D01*
X174480952Y-98028571D01*
X174433333Y-98028571D01*
X174385714Y-98052380D01*
X174361904Y-98076190D01*
X174338095Y-98123809D01*
X174314285Y-98219047D01*
X174290476Y-98266666D01*
X174266666Y-98290476D01*
X174219047Y-98314285D01*
X174171428Y-98314285D01*
X174123809Y-98290476D01*
X174100000Y-98266666D01*
X174076190Y-98219047D01*
X174076190Y-98100000D01*
X174100000Y-98028571D01*
X174576190Y-97814285D02*
X174076190Y-97814285D01*
X175576190Y-99485714D02*
X175076190Y-99485714D01*
X175433333Y-99319047D01*
X175076190Y-99152380D01*
X175576190Y-99152380D01*
X175576190Y-98914285D02*
X175076190Y-98914285D01*
X175552380Y-98700000D02*
X175576190Y-98628571D01*
X175576190Y-98509523D01*
X175552380Y-98461904D01*
X175528571Y-98438095D01*
X175480952Y-98414285D01*
X175433333Y-98414285D01*
X175385714Y-98438095D01*
X175361904Y-98461904D01*
X175338095Y-98509523D01*
X175314285Y-98604761D01*
X175290476Y-98652380D01*
X175266666Y-98676190D01*
X175219047Y-98700000D01*
X175171428Y-98700000D01*
X175123809Y-98676190D01*
X175100000Y-98652380D01*
X175076190Y-98604761D01*
X175076190Y-98485714D01*
X175100000Y-98414285D01*
X175076190Y-98104761D02*
X175076190Y-98009523D01*
X175100000Y-97961904D01*
X175147619Y-97914285D01*
X175242857Y-97890476D01*
X175409523Y-97890476D01*
X175504761Y-97914285D01*
X175552380Y-97961904D01*
X175576190Y-98009523D01*
X175576190Y-98104761D01*
X175552380Y-98152380D01*
X175504761Y-98200000D01*
X175409523Y-98223809D01*
X175242857Y-98223809D01*
X175147619Y-98200000D01*
X175100000Y-98152380D01*
X175076190Y-98104761D01*
X172626190Y-99480952D02*
X172126190Y-99480952D01*
X172483333Y-99314285D01*
X172126190Y-99147619D01*
X172626190Y-99147619D01*
X172126190Y-98814285D02*
X172126190Y-98719047D01*
X172150000Y-98671428D01*
X172197619Y-98623809D01*
X172292857Y-98600000D01*
X172459523Y-98600000D01*
X172554761Y-98623809D01*
X172602380Y-98671428D01*
X172626190Y-98719047D01*
X172626190Y-98814285D01*
X172602380Y-98861904D01*
X172554761Y-98909523D01*
X172459523Y-98933333D01*
X172292857Y-98933333D01*
X172197619Y-98909523D01*
X172150000Y-98861904D01*
X172126190Y-98814285D01*
X172126190Y-98457142D02*
X172126190Y-98171428D01*
X172626190Y-98314285D02*
X172126190Y-98314285D01*
X172626190Y-98004761D02*
X172126190Y-98004761D01*
X172626190Y-97719047D01*
X172126190Y-97719047D01*
X173502380Y-99445238D02*
X173526190Y-99373809D01*
X173526190Y-99254761D01*
X173502380Y-99207142D01*
X173478571Y-99183333D01*
X173430952Y-99159523D01*
X173383333Y-99159523D01*
X173335714Y-99183333D01*
X173311904Y-99207142D01*
X173288095Y-99254761D01*
X173264285Y-99350000D01*
X173240476Y-99397619D01*
X173216666Y-99421428D01*
X173169047Y-99445238D01*
X173121428Y-99445238D01*
X173073809Y-99421428D01*
X173050000Y-99397619D01*
X173026190Y-99350000D01*
X173026190Y-99230952D01*
X173050000Y-99159523D01*
X173478571Y-98659523D02*
X173502380Y-98683333D01*
X173526190Y-98754761D01*
X173526190Y-98802380D01*
X173502380Y-98873809D01*
X173454761Y-98921428D01*
X173407142Y-98945238D01*
X173311904Y-98969047D01*
X173240476Y-98969047D01*
X173145238Y-98945238D01*
X173097619Y-98921428D01*
X173050000Y-98873809D01*
X173026190Y-98802380D01*
X173026190Y-98754761D01*
X173050000Y-98683333D01*
X173073809Y-98659523D01*
X173526190Y-98207142D02*
X173526190Y-98445238D01*
X173026190Y-98445238D01*
X173526190Y-98040476D02*
X173026190Y-98040476D01*
X173526190Y-97754761D02*
X173240476Y-97969047D01*
X173026190Y-97754761D02*
X173311904Y-98040476D01*
D13*
X177300000Y-99700000D02*
G75*
G02X177400000Y-99700000I50000J0D01*
G01*
X177400000Y-99700000D02*
G75*
G02X177300000Y-99700000I-50000J0D01*
G01*
X177400000Y-99700000D02*
X177400000Y-99700000D01*
X177300000Y-99700000D02*
X177300000Y-99700000D01*
D12*
X168750000Y-101250000D02*
X169600000Y-101250000D01*
X168750000Y-104250000D02*
X168750000Y-101250000D01*
X169600000Y-104250000D02*
X168750000Y-104250000D01*
X180450000Y-101250000D02*
X179600000Y-101250000D01*
X180450000Y-104250000D02*
X180450000Y-101250000D01*
X179600000Y-104250000D02*
X180450000Y-104250000D01*
D13*
X152300000Y-110200000D02*
G75*
G03X152300000Y-110200000I-200000J0D01*
G01*
D11*
X147455000Y-107860000D02*
X149255000Y-107860000D01*
X149255000Y-104640000D02*
X146805000Y-104640000D01*
X148562742Y-99677500D02*
X149037258Y-99677500D01*
X148562742Y-100722500D02*
X149037258Y-100722500D01*
X148537742Y-101527500D02*
X149012258Y-101527500D01*
X148537742Y-102572500D02*
X149012258Y-102572500D01*
X148915580Y-110960000D02*
X148634420Y-110960000D01*
X148915580Y-109940000D02*
X148634420Y-109940000D01*
X148915580Y-104110000D02*
X148634420Y-104110000D01*
X148915580Y-103090000D02*
X148634420Y-103090000D01*
X148915580Y-109410000D02*
X148634420Y-109410000D01*
X148915580Y-108390000D02*
X148634420Y-108390000D01*
D14*
X168504523Y-100323333D02*
X169411666Y-100323333D01*
X169593095Y-100383809D01*
X169714047Y-100504761D01*
X169774523Y-100686190D01*
X169774523Y-100807142D01*
X169774523Y-99053333D02*
X169774523Y-99779047D01*
X169774523Y-99416190D02*
X168504523Y-99416190D01*
X168685952Y-99537142D01*
X168806904Y-99658095D01*
X168867380Y-99779047D01*
D10*
X168411904Y-109259523D02*
X169059523Y-109259523D01*
X169135714Y-109221428D01*
X169173809Y-109183333D01*
X169211904Y-109107142D01*
X169211904Y-108954761D01*
X169173809Y-108878571D01*
X169135714Y-108840476D01*
X169059523Y-108802380D01*
X168411904Y-108802380D01*
X169211904Y-108002380D02*
X169211904Y-108459523D01*
X169211904Y-108230952D02*
X168411904Y-108230952D01*
X168526190Y-108307142D01*
X168602380Y-108383333D01*
X168640476Y-108459523D01*
X145811904Y-106909523D02*
X146459523Y-106909523D01*
X146535714Y-106871428D01*
X146573809Y-106833333D01*
X146611904Y-106757142D01*
X146611904Y-106604761D01*
X146573809Y-106528571D01*
X146535714Y-106490476D01*
X146459523Y-106452380D01*
X145811904Y-106452380D01*
X145888095Y-106109523D02*
X145850000Y-106071428D01*
X145811904Y-105995238D01*
X145811904Y-105804761D01*
X145850000Y-105728571D01*
X145888095Y-105690476D01*
X145964285Y-105652380D01*
X146040476Y-105652380D01*
X146154761Y-105690476D01*
X146611904Y-106147619D01*
X146611904Y-105652380D01*
X146761904Y-100233333D02*
X146380952Y-100500000D01*
X146761904Y-100690476D02*
X145961904Y-100690476D01*
X145961904Y-100385714D01*
X146000000Y-100309523D01*
X146038095Y-100271428D01*
X146114285Y-100233333D01*
X146228571Y-100233333D01*
X146304761Y-100271428D01*
X146342857Y-100309523D01*
X146380952Y-100385714D01*
X146380952Y-100690476D01*
X146038095Y-99928571D02*
X146000000Y-99890476D01*
X145961904Y-99814285D01*
X145961904Y-99623809D01*
X146000000Y-99547619D01*
X146038095Y-99509523D01*
X146114285Y-99471428D01*
X146190476Y-99471428D01*
X146304761Y-99509523D01*
X146761904Y-99966666D01*
X146761904Y-99471428D01*
X146761904Y-101983333D02*
X146380952Y-102250000D01*
X146761904Y-102440476D02*
X145961904Y-102440476D01*
X145961904Y-102135714D01*
X146000000Y-102059523D01*
X146038095Y-102021428D01*
X146114285Y-101983333D01*
X146228571Y-101983333D01*
X146304761Y-102021428D01*
X146342857Y-102059523D01*
X146380952Y-102135714D01*
X146380952Y-102440476D01*
X146761904Y-101221428D02*
X146761904Y-101678571D01*
X146761904Y-101450000D02*
X145961904Y-101450000D01*
X146076190Y-101526190D01*
X146152380Y-101602380D01*
X146190476Y-101678571D01*
X146635714Y-110633333D02*
X146673809Y-110671428D01*
X146711904Y-110785714D01*
X146711904Y-110861904D01*
X146673809Y-110976190D01*
X146597619Y-111052380D01*
X146521428Y-111090476D01*
X146369047Y-111128571D01*
X146254761Y-111128571D01*
X146102380Y-111090476D01*
X146026190Y-111052380D01*
X145950000Y-110976190D01*
X145911904Y-110861904D01*
X145911904Y-110785714D01*
X145950000Y-110671428D01*
X145988095Y-110633333D01*
X145911904Y-110366666D02*
X145911904Y-109871428D01*
X146216666Y-110138095D01*
X146216666Y-110023809D01*
X146254761Y-109947619D01*
X146292857Y-109909523D01*
X146369047Y-109871428D01*
X146559523Y-109871428D01*
X146635714Y-109909523D01*
X146673809Y-109947619D01*
X146711904Y-110023809D01*
X146711904Y-110252380D01*
X146673809Y-110328571D01*
X146635714Y-110366666D01*
X146685714Y-103733333D02*
X146723809Y-103771428D01*
X146761904Y-103885714D01*
X146761904Y-103961904D01*
X146723809Y-104076190D01*
X146647619Y-104152380D01*
X146571428Y-104190476D01*
X146419047Y-104228571D01*
X146304761Y-104228571D01*
X146152380Y-104190476D01*
X146076190Y-104152380D01*
X146000000Y-104076190D01*
X145961904Y-103961904D01*
X145961904Y-103885714D01*
X146000000Y-103771428D01*
X146038095Y-103733333D01*
X146038095Y-103428571D02*
X146000000Y-103390476D01*
X145961904Y-103314285D01*
X145961904Y-103123809D01*
X146000000Y-103047619D01*
X146038095Y-103009523D01*
X146114285Y-102971428D01*
X146190476Y-102971428D01*
X146304761Y-103009523D01*
X146761904Y-103466666D01*
X146761904Y-102971428D01*
X146635714Y-108933333D02*
X146673809Y-108971428D01*
X146711904Y-109085714D01*
X146711904Y-109161904D01*
X146673809Y-109276190D01*
X146597619Y-109352380D01*
X146521428Y-109390476D01*
X146369047Y-109428571D01*
X146254761Y-109428571D01*
X146102380Y-109390476D01*
X146026190Y-109352380D01*
X145950000Y-109276190D01*
X145911904Y-109161904D01*
X145911904Y-109085714D01*
X145950000Y-108971428D01*
X145988095Y-108933333D01*
X146711904Y-108171428D02*
X146711904Y-108628571D01*
X146711904Y-108400000D02*
X145911904Y-108400000D01*
X146026190Y-108476190D01*
X146102380Y-108552380D01*
X146140476Y-108628571D01*
%LPC*%
D15*
X144060000Y-108050000D03*
X173490000Y-108100000D03*
D16*
X170850000Y-103800000D03*
X170850000Y-101000000D03*
X178350000Y-103800000D03*
X178350000Y-101000000D03*
D17*
X171850000Y-103800000D03*
X172350000Y-101000000D03*
X172850000Y-103800000D03*
X173350000Y-101000000D03*
X173850000Y-103800000D03*
X174350000Y-101000000D03*
X174850000Y-103800000D03*
X175350000Y-101000000D03*
X175850000Y-103800000D03*
X176350000Y-101000000D03*
X176850000Y-103800000D03*
X177350000Y-101000000D03*
D18*
X166750000Y-99500000D03*
X164970000Y-99500000D03*
X163190000Y-99500000D03*
X161410000Y-99500000D03*
X159630000Y-99500000D03*
X157850000Y-99500000D03*
X156070000Y-99500000D03*
X154290000Y-99500000D03*
X165860000Y-110200000D03*
X164080000Y-110200000D03*
X162300000Y-110200000D03*
X160520000Y-110200000D03*
X158740000Y-110200000D03*
X156960000Y-110200000D03*
X155180000Y-110200000D03*
D19*
X153400000Y-110200000D03*
D20*
X149455000Y-105300000D03*
X149455000Y-107200000D03*
X147255000Y-107200000D03*
X147255000Y-106250000D03*
X147255000Y-105300000D03*
D12*
G36*
X149844603Y-99725963D02*
G01*
X149864018Y-99728843D01*
X149883057Y-99733612D01*
X149901537Y-99740224D01*
X149919279Y-99748616D01*
X149936114Y-99758706D01*
X149951879Y-99770398D01*
X149966421Y-99783579D01*
X149979602Y-99798121D01*
X149991294Y-99813886D01*
X150001384Y-99830721D01*
X150009776Y-99848463D01*
X150016388Y-99866943D01*
X150021157Y-99885982D01*
X150024037Y-99905397D01*
X150025000Y-99925000D01*
X150025000Y-100475000D01*
X150024037Y-100494603D01*
X150021157Y-100514018D01*
X150016388Y-100533057D01*
X150009776Y-100551537D01*
X150001384Y-100569279D01*
X149991294Y-100586114D01*
X149979602Y-100601879D01*
X149966421Y-100616421D01*
X149951879Y-100629602D01*
X149936114Y-100641294D01*
X149919279Y-100651384D01*
X149901537Y-100659776D01*
X149883057Y-100666388D01*
X149864018Y-100671157D01*
X149844603Y-100674037D01*
X149825000Y-100675000D01*
X149425000Y-100675000D01*
X149405397Y-100674037D01*
X149385982Y-100671157D01*
X149366943Y-100666388D01*
X149348463Y-100659776D01*
X149330721Y-100651384D01*
X149313886Y-100641294D01*
X149298121Y-100629602D01*
X149283579Y-100616421D01*
X149270398Y-100601879D01*
X149258706Y-100586114D01*
X149248616Y-100569279D01*
X149240224Y-100551537D01*
X149233612Y-100533057D01*
X149228843Y-100514018D01*
X149225963Y-100494603D01*
X149225000Y-100475000D01*
X149225000Y-99925000D01*
X149225963Y-99905397D01*
X149228843Y-99885982D01*
X149233612Y-99866943D01*
X149240224Y-99848463D01*
X149248616Y-99830721D01*
X149258706Y-99813886D01*
X149270398Y-99798121D01*
X149283579Y-99783579D01*
X149298121Y-99770398D01*
X149313886Y-99758706D01*
X149330721Y-99748616D01*
X149348463Y-99740224D01*
X149366943Y-99733612D01*
X149385982Y-99728843D01*
X149405397Y-99725963D01*
X149425000Y-99725000D01*
X149825000Y-99725000D01*
X149844603Y-99725963D01*
X149844603Y-99725963D01*
G37*
D21*
X149625000Y-100200000D03*
D12*
G36*
X148194603Y-99725963D02*
G01*
X148214018Y-99728843D01*
X148233057Y-99733612D01*
X148251537Y-99740224D01*
X148269279Y-99748616D01*
X148286114Y-99758706D01*
X148301879Y-99770398D01*
X148316421Y-99783579D01*
X148329602Y-99798121D01*
X148341294Y-99813886D01*
X148351384Y-99830721D01*
X148359776Y-99848463D01*
X148366388Y-99866943D01*
X148371157Y-99885982D01*
X148374037Y-99905397D01*
X148375000Y-99925000D01*
X148375000Y-100475000D01*
X148374037Y-100494603D01*
X148371157Y-100514018D01*
X148366388Y-100533057D01*
X148359776Y-100551537D01*
X148351384Y-100569279D01*
X148341294Y-100586114D01*
X148329602Y-100601879D01*
X148316421Y-100616421D01*
X148301879Y-100629602D01*
X148286114Y-100641294D01*
X148269279Y-100651384D01*
X148251537Y-100659776D01*
X148233057Y-100666388D01*
X148214018Y-100671157D01*
X148194603Y-100674037D01*
X148175000Y-100675000D01*
X147775000Y-100675000D01*
X147755397Y-100674037D01*
X147735982Y-100671157D01*
X147716943Y-100666388D01*
X147698463Y-100659776D01*
X147680721Y-100651384D01*
X147663886Y-100641294D01*
X147648121Y-100629602D01*
X147633579Y-100616421D01*
X147620398Y-100601879D01*
X147608706Y-100586114D01*
X147598616Y-100569279D01*
X147590224Y-100551537D01*
X147583612Y-100533057D01*
X147578843Y-100514018D01*
X147575963Y-100494603D01*
X147575000Y-100475000D01*
X147575000Y-99925000D01*
X147575963Y-99905397D01*
X147578843Y-99885982D01*
X147583612Y-99866943D01*
X147590224Y-99848463D01*
X147598616Y-99830721D01*
X147608706Y-99813886D01*
X147620398Y-99798121D01*
X147633579Y-99783579D01*
X147648121Y-99770398D01*
X147663886Y-99758706D01*
X147680721Y-99748616D01*
X147698463Y-99740224D01*
X147716943Y-99733612D01*
X147735982Y-99728843D01*
X147755397Y-99725963D01*
X147775000Y-99725000D01*
X148175000Y-99725000D01*
X148194603Y-99725963D01*
X148194603Y-99725963D01*
G37*
D21*
X147975000Y-100200000D03*
D12*
G36*
X149819603Y-101575963D02*
G01*
X149839018Y-101578843D01*
X149858057Y-101583612D01*
X149876537Y-101590224D01*
X149894279Y-101598616D01*
X149911114Y-101608706D01*
X149926879Y-101620398D01*
X149941421Y-101633579D01*
X149954602Y-101648121D01*
X149966294Y-101663886D01*
X149976384Y-101680721D01*
X149984776Y-101698463D01*
X149991388Y-101716943D01*
X149996157Y-101735982D01*
X149999037Y-101755397D01*
X150000000Y-101775000D01*
X150000000Y-102325000D01*
X149999037Y-102344603D01*
X149996157Y-102364018D01*
X149991388Y-102383057D01*
X149984776Y-102401537D01*
X149976384Y-102419279D01*
X149966294Y-102436114D01*
X149954602Y-102451879D01*
X149941421Y-102466421D01*
X149926879Y-102479602D01*
X149911114Y-102491294D01*
X149894279Y-102501384D01*
X149876537Y-102509776D01*
X149858057Y-102516388D01*
X149839018Y-102521157D01*
X149819603Y-102524037D01*
X149800000Y-102525000D01*
X149400000Y-102525000D01*
X149380397Y-102524037D01*
X149360982Y-102521157D01*
X149341943Y-102516388D01*
X149323463Y-102509776D01*
X149305721Y-102501384D01*
X149288886Y-102491294D01*
X149273121Y-102479602D01*
X149258579Y-102466421D01*
X149245398Y-102451879D01*
X149233706Y-102436114D01*
X149223616Y-102419279D01*
X149215224Y-102401537D01*
X149208612Y-102383057D01*
X149203843Y-102364018D01*
X149200963Y-102344603D01*
X149200000Y-102325000D01*
X149200000Y-101775000D01*
X149200963Y-101755397D01*
X149203843Y-101735982D01*
X149208612Y-101716943D01*
X149215224Y-101698463D01*
X149223616Y-101680721D01*
X149233706Y-101663886D01*
X149245398Y-101648121D01*
X149258579Y-101633579D01*
X149273121Y-101620398D01*
X149288886Y-101608706D01*
X149305721Y-101598616D01*
X149323463Y-101590224D01*
X149341943Y-101583612D01*
X149360982Y-101578843D01*
X149380397Y-101575963D01*
X149400000Y-101575000D01*
X149800000Y-101575000D01*
X149819603Y-101575963D01*
X149819603Y-101575963D01*
G37*
D21*
X149600000Y-102050000D03*
D12*
G36*
X148169603Y-101575963D02*
G01*
X148189018Y-101578843D01*
X148208057Y-101583612D01*
X148226537Y-101590224D01*
X148244279Y-101598616D01*
X148261114Y-101608706D01*
X148276879Y-101620398D01*
X148291421Y-101633579D01*
X148304602Y-101648121D01*
X148316294Y-101663886D01*
X148326384Y-101680721D01*
X148334776Y-101698463D01*
X148341388Y-101716943D01*
X148346157Y-101735982D01*
X148349037Y-101755397D01*
X148350000Y-101775000D01*
X148350000Y-102325000D01*
X148349037Y-102344603D01*
X148346157Y-102364018D01*
X148341388Y-102383057D01*
X148334776Y-102401537D01*
X148326384Y-102419279D01*
X148316294Y-102436114D01*
X148304602Y-102451879D01*
X148291421Y-102466421D01*
X148276879Y-102479602D01*
X148261114Y-102491294D01*
X148244279Y-102501384D01*
X148226537Y-102509776D01*
X148208057Y-102516388D01*
X148189018Y-102521157D01*
X148169603Y-102524037D01*
X148150000Y-102525000D01*
X147750000Y-102525000D01*
X147730397Y-102524037D01*
X147710982Y-102521157D01*
X147691943Y-102516388D01*
X147673463Y-102509776D01*
X147655721Y-102501384D01*
X147638886Y-102491294D01*
X147623121Y-102479602D01*
X147608579Y-102466421D01*
X147595398Y-102451879D01*
X147583706Y-102436114D01*
X147573616Y-102419279D01*
X147565224Y-102401537D01*
X147558612Y-102383057D01*
X147553843Y-102364018D01*
X147550963Y-102344603D01*
X147550000Y-102325000D01*
X147550000Y-101775000D01*
X147550963Y-101755397D01*
X147553843Y-101735982D01*
X147558612Y-101716943D01*
X147565224Y-101698463D01*
X147573616Y-101680721D01*
X147583706Y-101663886D01*
X147595398Y-101648121D01*
X147608579Y-101633579D01*
X147623121Y-101620398D01*
X147638886Y-101608706D01*
X147655721Y-101598616D01*
X147673463Y-101590224D01*
X147691943Y-101583612D01*
X147710982Y-101578843D01*
X147730397Y-101575963D01*
X147750000Y-101575000D01*
X148150000Y-101575000D01*
X148169603Y-101575963D01*
X148169603Y-101575963D01*
G37*
D21*
X147950000Y-102050000D03*
D12*
G36*
X148247054Y-109976083D02*
G01*
X148268895Y-109979323D01*
X148290314Y-109984688D01*
X148311104Y-109992127D01*
X148331064Y-110001568D01*
X148350003Y-110012919D01*
X148367738Y-110026073D01*
X148384099Y-110040901D01*
X148398927Y-110057262D01*
X148412081Y-110074997D01*
X148423432Y-110093936D01*
X148432873Y-110113896D01*
X148440312Y-110134686D01*
X148445677Y-110156105D01*
X148448917Y-110177946D01*
X148450000Y-110200000D01*
X148450000Y-110700000D01*
X148448917Y-110722054D01*
X148445677Y-110743895D01*
X148440312Y-110765314D01*
X148432873Y-110786104D01*
X148423432Y-110806064D01*
X148412081Y-110825003D01*
X148398927Y-110842738D01*
X148384099Y-110859099D01*
X148367738Y-110873927D01*
X148350003Y-110887081D01*
X148331064Y-110898432D01*
X148311104Y-110907873D01*
X148290314Y-110915312D01*
X148268895Y-110920677D01*
X148247054Y-110923917D01*
X148225000Y-110925000D01*
X147775000Y-110925000D01*
X147752946Y-110923917D01*
X147731105Y-110920677D01*
X147709686Y-110915312D01*
X147688896Y-110907873D01*
X147668936Y-110898432D01*
X147649997Y-110887081D01*
X147632262Y-110873927D01*
X147615901Y-110859099D01*
X147601073Y-110842738D01*
X147587919Y-110825003D01*
X147576568Y-110806064D01*
X147567127Y-110786104D01*
X147559688Y-110765314D01*
X147554323Y-110743895D01*
X147551083Y-110722054D01*
X147550000Y-110700000D01*
X147550000Y-110200000D01*
X147551083Y-110177946D01*
X147554323Y-110156105D01*
X147559688Y-110134686D01*
X147567127Y-110113896D01*
X147576568Y-110093936D01*
X147587919Y-110074997D01*
X147601073Y-110057262D01*
X147615901Y-110040901D01*
X147632262Y-110026073D01*
X147649997Y-110012919D01*
X147668936Y-110001568D01*
X147688896Y-109992127D01*
X147709686Y-109984688D01*
X147731105Y-109979323D01*
X147752946Y-109976083D01*
X147775000Y-109975000D01*
X148225000Y-109975000D01*
X148247054Y-109976083D01*
X148247054Y-109976083D01*
G37*
D22*
X148000000Y-110450000D03*
D12*
G36*
X149797054Y-109976083D02*
G01*
X149818895Y-109979323D01*
X149840314Y-109984688D01*
X149861104Y-109992127D01*
X149881064Y-110001568D01*
X149900003Y-110012919D01*
X149917738Y-110026073D01*
X149934099Y-110040901D01*
X149948927Y-110057262D01*
X149962081Y-110074997D01*
X149973432Y-110093936D01*
X149982873Y-110113896D01*
X149990312Y-110134686D01*
X149995677Y-110156105D01*
X149998917Y-110177946D01*
X150000000Y-110200000D01*
X150000000Y-110700000D01*
X149998917Y-110722054D01*
X149995677Y-110743895D01*
X149990312Y-110765314D01*
X149982873Y-110786104D01*
X149973432Y-110806064D01*
X149962081Y-110825003D01*
X149948927Y-110842738D01*
X149934099Y-110859099D01*
X149917738Y-110873927D01*
X149900003Y-110887081D01*
X149881064Y-110898432D01*
X149861104Y-110907873D01*
X149840314Y-110915312D01*
X149818895Y-110920677D01*
X149797054Y-110923917D01*
X149775000Y-110925000D01*
X149325000Y-110925000D01*
X149302946Y-110923917D01*
X149281105Y-110920677D01*
X149259686Y-110915312D01*
X149238896Y-110907873D01*
X149218936Y-110898432D01*
X149199997Y-110887081D01*
X149182262Y-110873927D01*
X149165901Y-110859099D01*
X149151073Y-110842738D01*
X149137919Y-110825003D01*
X149126568Y-110806064D01*
X149117127Y-110786104D01*
X149109688Y-110765314D01*
X149104323Y-110743895D01*
X149101083Y-110722054D01*
X149100000Y-110700000D01*
X149100000Y-110200000D01*
X149101083Y-110177946D01*
X149104323Y-110156105D01*
X149109688Y-110134686D01*
X149117127Y-110113896D01*
X149126568Y-110093936D01*
X149137919Y-110074997D01*
X149151073Y-110057262D01*
X149165901Y-110040901D01*
X149182262Y-110026073D01*
X149199997Y-110012919D01*
X149218936Y-110001568D01*
X149238896Y-109992127D01*
X149259686Y-109984688D01*
X149281105Y-109979323D01*
X149302946Y-109976083D01*
X149325000Y-109975000D01*
X149775000Y-109975000D01*
X149797054Y-109976083D01*
X149797054Y-109976083D01*
G37*
D22*
X149550000Y-110450000D03*
D12*
G36*
X148247054Y-103126083D02*
G01*
X148268895Y-103129323D01*
X148290314Y-103134688D01*
X148311104Y-103142127D01*
X148331064Y-103151568D01*
X148350003Y-103162919D01*
X148367738Y-103176073D01*
X148384099Y-103190901D01*
X148398927Y-103207262D01*
X148412081Y-103224997D01*
X148423432Y-103243936D01*
X148432873Y-103263896D01*
X148440312Y-103284686D01*
X148445677Y-103306105D01*
X148448917Y-103327946D01*
X148450000Y-103350000D01*
X148450000Y-103850000D01*
X148448917Y-103872054D01*
X148445677Y-103893895D01*
X148440312Y-103915314D01*
X148432873Y-103936104D01*
X148423432Y-103956064D01*
X148412081Y-103975003D01*
X148398927Y-103992738D01*
X148384099Y-104009099D01*
X148367738Y-104023927D01*
X148350003Y-104037081D01*
X148331064Y-104048432D01*
X148311104Y-104057873D01*
X148290314Y-104065312D01*
X148268895Y-104070677D01*
X148247054Y-104073917D01*
X148225000Y-104075000D01*
X147775000Y-104075000D01*
X147752946Y-104073917D01*
X147731105Y-104070677D01*
X147709686Y-104065312D01*
X147688896Y-104057873D01*
X147668936Y-104048432D01*
X147649997Y-104037081D01*
X147632262Y-104023927D01*
X147615901Y-104009099D01*
X147601073Y-103992738D01*
X147587919Y-103975003D01*
X147576568Y-103956064D01*
X147567127Y-103936104D01*
X147559688Y-103915314D01*
X147554323Y-103893895D01*
X147551083Y-103872054D01*
X147550000Y-103850000D01*
X147550000Y-103350000D01*
X147551083Y-103327946D01*
X147554323Y-103306105D01*
X147559688Y-103284686D01*
X147567127Y-103263896D01*
X147576568Y-103243936D01*
X147587919Y-103224997D01*
X147601073Y-103207262D01*
X147615901Y-103190901D01*
X147632262Y-103176073D01*
X147649997Y-103162919D01*
X147668936Y-103151568D01*
X147688896Y-103142127D01*
X147709686Y-103134688D01*
X147731105Y-103129323D01*
X147752946Y-103126083D01*
X147775000Y-103125000D01*
X148225000Y-103125000D01*
X148247054Y-103126083D01*
X148247054Y-103126083D01*
G37*
D22*
X148000000Y-103600000D03*
D12*
G36*
X149797054Y-103126083D02*
G01*
X149818895Y-103129323D01*
X149840314Y-103134688D01*
X149861104Y-103142127D01*
X149881064Y-103151568D01*
X149900003Y-103162919D01*
X149917738Y-103176073D01*
X149934099Y-103190901D01*
X149948927Y-103207262D01*
X149962081Y-103224997D01*
X149973432Y-103243936D01*
X149982873Y-103263896D01*
X149990312Y-103284686D01*
X149995677Y-103306105D01*
X149998917Y-103327946D01*
X150000000Y-103350000D01*
X150000000Y-103850000D01*
X149998917Y-103872054D01*
X149995677Y-103893895D01*
X149990312Y-103915314D01*
X149982873Y-103936104D01*
X149973432Y-103956064D01*
X149962081Y-103975003D01*
X149948927Y-103992738D01*
X149934099Y-104009099D01*
X149917738Y-104023927D01*
X149900003Y-104037081D01*
X149881064Y-104048432D01*
X149861104Y-104057873D01*
X149840314Y-104065312D01*
X149818895Y-104070677D01*
X149797054Y-104073917D01*
X149775000Y-104075000D01*
X149325000Y-104075000D01*
X149302946Y-104073917D01*
X149281105Y-104070677D01*
X149259686Y-104065312D01*
X149238896Y-104057873D01*
X149218936Y-104048432D01*
X149199997Y-104037081D01*
X149182262Y-104023927D01*
X149165901Y-104009099D01*
X149151073Y-103992738D01*
X149137919Y-103975003D01*
X149126568Y-103956064D01*
X149117127Y-103936104D01*
X149109688Y-103915314D01*
X149104323Y-103893895D01*
X149101083Y-103872054D01*
X149100000Y-103850000D01*
X149100000Y-103350000D01*
X149101083Y-103327946D01*
X149104323Y-103306105D01*
X149109688Y-103284686D01*
X149117127Y-103263896D01*
X149126568Y-103243936D01*
X149137919Y-103224997D01*
X149151073Y-103207262D01*
X149165901Y-103190901D01*
X149182262Y-103176073D01*
X149199997Y-103162919D01*
X149218936Y-103151568D01*
X149238896Y-103142127D01*
X149259686Y-103134688D01*
X149281105Y-103129323D01*
X149302946Y-103126083D01*
X149325000Y-103125000D01*
X149775000Y-103125000D01*
X149797054Y-103126083D01*
X149797054Y-103126083D01*
G37*
D22*
X149550000Y-103600000D03*
D12*
G36*
X148247054Y-108426083D02*
G01*
X148268895Y-108429323D01*
X148290314Y-108434688D01*
X148311104Y-108442127D01*
X148331064Y-108451568D01*
X148350003Y-108462919D01*
X148367738Y-108476073D01*
X148384099Y-108490901D01*
X148398927Y-108507262D01*
X148412081Y-108524997D01*
X148423432Y-108543936D01*
X148432873Y-108563896D01*
X148440312Y-108584686D01*
X148445677Y-108606105D01*
X148448917Y-108627946D01*
X148450000Y-108650000D01*
X148450000Y-109150000D01*
X148448917Y-109172054D01*
X148445677Y-109193895D01*
X148440312Y-109215314D01*
X148432873Y-109236104D01*
X148423432Y-109256064D01*
X148412081Y-109275003D01*
X148398927Y-109292738D01*
X148384099Y-109309099D01*
X148367738Y-109323927D01*
X148350003Y-109337081D01*
X148331064Y-109348432D01*
X148311104Y-109357873D01*
X148290314Y-109365312D01*
X148268895Y-109370677D01*
X148247054Y-109373917D01*
X148225000Y-109375000D01*
X147775000Y-109375000D01*
X147752946Y-109373917D01*
X147731105Y-109370677D01*
X147709686Y-109365312D01*
X147688896Y-109357873D01*
X147668936Y-109348432D01*
X147649997Y-109337081D01*
X147632262Y-109323927D01*
X147615901Y-109309099D01*
X147601073Y-109292738D01*
X147587919Y-109275003D01*
X147576568Y-109256064D01*
X147567127Y-109236104D01*
X147559688Y-109215314D01*
X147554323Y-109193895D01*
X147551083Y-109172054D01*
X147550000Y-109150000D01*
X147550000Y-108650000D01*
X147551083Y-108627946D01*
X147554323Y-108606105D01*
X147559688Y-108584686D01*
X147567127Y-108563896D01*
X147576568Y-108543936D01*
X147587919Y-108524997D01*
X147601073Y-108507262D01*
X147615901Y-108490901D01*
X147632262Y-108476073D01*
X147649997Y-108462919D01*
X147668936Y-108451568D01*
X147688896Y-108442127D01*
X147709686Y-108434688D01*
X147731105Y-108429323D01*
X147752946Y-108426083D01*
X147775000Y-108425000D01*
X148225000Y-108425000D01*
X148247054Y-108426083D01*
X148247054Y-108426083D01*
G37*
D22*
X148000000Y-108900000D03*
D12*
G36*
X149797054Y-108426083D02*
G01*
X149818895Y-108429323D01*
X149840314Y-108434688D01*
X149861104Y-108442127D01*
X149881064Y-108451568D01*
X149900003Y-108462919D01*
X149917738Y-108476073D01*
X149934099Y-108490901D01*
X149948927Y-108507262D01*
X149962081Y-108524997D01*
X149973432Y-108543936D01*
X149982873Y-108563896D01*
X149990312Y-108584686D01*
X149995677Y-108606105D01*
X149998917Y-108627946D01*
X150000000Y-108650000D01*
X150000000Y-109150000D01*
X149998917Y-109172054D01*
X149995677Y-109193895D01*
X149990312Y-109215314D01*
X149982873Y-109236104D01*
X149973432Y-109256064D01*
X149962081Y-109275003D01*
X149948927Y-109292738D01*
X149934099Y-109309099D01*
X149917738Y-109323927D01*
X149900003Y-109337081D01*
X149881064Y-109348432D01*
X149861104Y-109357873D01*
X149840314Y-109365312D01*
X149818895Y-109370677D01*
X149797054Y-109373917D01*
X149775000Y-109375000D01*
X149325000Y-109375000D01*
X149302946Y-109373917D01*
X149281105Y-109370677D01*
X149259686Y-109365312D01*
X149238896Y-109357873D01*
X149218936Y-109348432D01*
X149199997Y-109337081D01*
X149182262Y-109323927D01*
X149165901Y-109309099D01*
X149151073Y-109292738D01*
X149137919Y-109275003D01*
X149126568Y-109256064D01*
X149117127Y-109236104D01*
X149109688Y-109215314D01*
X149104323Y-109193895D01*
X149101083Y-109172054D01*
X149100000Y-109150000D01*
X149100000Y-108650000D01*
X149101083Y-108627946D01*
X149104323Y-108606105D01*
X149109688Y-108584686D01*
X149117127Y-108563896D01*
X149126568Y-108543936D01*
X149137919Y-108524997D01*
X149151073Y-108507262D01*
X149165901Y-108490901D01*
X149182262Y-108476073D01*
X149199997Y-108462919D01*
X149218936Y-108451568D01*
X149238896Y-108442127D01*
X149259686Y-108434688D01*
X149281105Y-108429323D01*
X149302946Y-108426083D01*
X149325000Y-108425000D01*
X149775000Y-108425000D01*
X149797054Y-108426083D01*
X149797054Y-108426083D01*
G37*
D22*
X149550000Y-108900000D03*
M02*
