%TF.GenerationSoftware,KiCad,Pcbnew,(5.1.4)-1*%
%TF.CreationDate,2025-05-10T17:32:09-04:00*%
%TF.ProjectId,PMW3360,504d5733-3336-4302-9e6b-696361645f70,rev?*%
%TF.SameCoordinates,Original*%
%TF.FileFunction,Copper,L1,Top*%
%TF.FilePolarity,Positive*%
%FSLAX46Y46*%
G04 Gerber Fmt 4.6, Leading zero omitted, Abs format (unit mm)*
G04 Created by KiCad (PCBNEW (5.1.4)-1) date 2025-05-10 17:32:09*
%MOMM*%
%LPD*%
G04 APERTURE LIST*
%ADD10R,0.800000X1.500000*%
%ADD11R,0.600000X1.500000*%
%ADD12C,1.200000*%
%ADD13R,1.200000X1.200000*%
%ADD14R,1.060000X0.650000*%
%ADD15C,0.100000*%
%ADD16C,0.800000*%
%ADD17C,0.900000*%
%ADD18C,0.375000*%
%ADD19C,0.250000*%
%ADD20C,0.254000*%
G04 APERTURE END LIST*
D10*
X170850000Y-103800000D03*
X170850000Y-101000000D03*
X178350000Y-103800000D03*
X178350000Y-101000000D03*
D11*
X171850000Y-103800000D03*
X172350000Y-101000000D03*
X172850000Y-103800000D03*
X173350000Y-101000000D03*
X173850000Y-103800000D03*
X174350000Y-101000000D03*
X174850000Y-103800000D03*
X175350000Y-101000000D03*
X175850000Y-103800000D03*
X176350000Y-101000000D03*
X176850000Y-103800000D03*
X177350000Y-101000000D03*
D12*
X166750000Y-99500000D03*
X164970000Y-99500000D03*
X163190000Y-99500000D03*
X161410000Y-99500000D03*
X159630000Y-99500000D03*
X157850000Y-99500000D03*
X156070000Y-99500000D03*
X154290000Y-99500000D03*
X165860000Y-110200000D03*
X164080000Y-110200000D03*
X162300000Y-110200000D03*
X160520000Y-110200000D03*
X158740000Y-110200000D03*
X156960000Y-110200000D03*
X155180000Y-110200000D03*
D13*
X153400000Y-110200000D03*
D14*
X149455000Y-105300000D03*
X149455000Y-107200000D03*
X147255000Y-107200000D03*
X147255000Y-106250000D03*
X147255000Y-105300000D03*
D15*
G36*
X149844603Y-99725963D02*
G01*
X149864018Y-99728843D01*
X149883057Y-99733612D01*
X149901537Y-99740224D01*
X149919279Y-99748616D01*
X149936114Y-99758706D01*
X149951879Y-99770398D01*
X149966421Y-99783579D01*
X149979602Y-99798121D01*
X149991294Y-99813886D01*
X150001384Y-99830721D01*
X150009776Y-99848463D01*
X150016388Y-99866943D01*
X150021157Y-99885982D01*
X150024037Y-99905397D01*
X150025000Y-99925000D01*
X150025000Y-100475000D01*
X150024037Y-100494603D01*
X150021157Y-100514018D01*
X150016388Y-100533057D01*
X150009776Y-100551537D01*
X150001384Y-100569279D01*
X149991294Y-100586114D01*
X149979602Y-100601879D01*
X149966421Y-100616421D01*
X149951879Y-100629602D01*
X149936114Y-100641294D01*
X149919279Y-100651384D01*
X149901537Y-100659776D01*
X149883057Y-100666388D01*
X149864018Y-100671157D01*
X149844603Y-100674037D01*
X149825000Y-100675000D01*
X149425000Y-100675000D01*
X149405397Y-100674037D01*
X149385982Y-100671157D01*
X149366943Y-100666388D01*
X149348463Y-100659776D01*
X149330721Y-100651384D01*
X149313886Y-100641294D01*
X149298121Y-100629602D01*
X149283579Y-100616421D01*
X149270398Y-100601879D01*
X149258706Y-100586114D01*
X149248616Y-100569279D01*
X149240224Y-100551537D01*
X149233612Y-100533057D01*
X149228843Y-100514018D01*
X149225963Y-100494603D01*
X149225000Y-100475000D01*
X149225000Y-99925000D01*
X149225963Y-99905397D01*
X149228843Y-99885982D01*
X149233612Y-99866943D01*
X149240224Y-99848463D01*
X149248616Y-99830721D01*
X149258706Y-99813886D01*
X149270398Y-99798121D01*
X149283579Y-99783579D01*
X149298121Y-99770398D01*
X149313886Y-99758706D01*
X149330721Y-99748616D01*
X149348463Y-99740224D01*
X149366943Y-99733612D01*
X149385982Y-99728843D01*
X149405397Y-99725963D01*
X149425000Y-99725000D01*
X149825000Y-99725000D01*
X149844603Y-99725963D01*
X149844603Y-99725963D01*
G37*
D16*
X149625000Y-100200000D03*
D15*
G36*
X148194603Y-99725963D02*
G01*
X148214018Y-99728843D01*
X148233057Y-99733612D01*
X148251537Y-99740224D01*
X148269279Y-99748616D01*
X148286114Y-99758706D01*
X148301879Y-99770398D01*
X148316421Y-99783579D01*
X148329602Y-99798121D01*
X148341294Y-99813886D01*
X148351384Y-99830721D01*
X148359776Y-99848463D01*
X148366388Y-99866943D01*
X148371157Y-99885982D01*
X148374037Y-99905397D01*
X148375000Y-99925000D01*
X148375000Y-100475000D01*
X148374037Y-100494603D01*
X148371157Y-100514018D01*
X148366388Y-100533057D01*
X148359776Y-100551537D01*
X148351384Y-100569279D01*
X148341294Y-100586114D01*
X148329602Y-100601879D01*
X148316421Y-100616421D01*
X148301879Y-100629602D01*
X148286114Y-100641294D01*
X148269279Y-100651384D01*
X148251537Y-100659776D01*
X148233057Y-100666388D01*
X148214018Y-100671157D01*
X148194603Y-100674037D01*
X148175000Y-100675000D01*
X147775000Y-100675000D01*
X147755397Y-100674037D01*
X147735982Y-100671157D01*
X147716943Y-100666388D01*
X147698463Y-100659776D01*
X147680721Y-100651384D01*
X147663886Y-100641294D01*
X147648121Y-100629602D01*
X147633579Y-100616421D01*
X147620398Y-100601879D01*
X147608706Y-100586114D01*
X147598616Y-100569279D01*
X147590224Y-100551537D01*
X147583612Y-100533057D01*
X147578843Y-100514018D01*
X147575963Y-100494603D01*
X147575000Y-100475000D01*
X147575000Y-99925000D01*
X147575963Y-99905397D01*
X147578843Y-99885982D01*
X147583612Y-99866943D01*
X147590224Y-99848463D01*
X147598616Y-99830721D01*
X147608706Y-99813886D01*
X147620398Y-99798121D01*
X147633579Y-99783579D01*
X147648121Y-99770398D01*
X147663886Y-99758706D01*
X147680721Y-99748616D01*
X147698463Y-99740224D01*
X147716943Y-99733612D01*
X147735982Y-99728843D01*
X147755397Y-99725963D01*
X147775000Y-99725000D01*
X148175000Y-99725000D01*
X148194603Y-99725963D01*
X148194603Y-99725963D01*
G37*
D16*
X147975000Y-100200000D03*
D15*
G36*
X149819603Y-101575963D02*
G01*
X149839018Y-101578843D01*
X149858057Y-101583612D01*
X149876537Y-101590224D01*
X149894279Y-101598616D01*
X149911114Y-101608706D01*
X149926879Y-101620398D01*
X149941421Y-101633579D01*
X149954602Y-101648121D01*
X149966294Y-101663886D01*
X149976384Y-101680721D01*
X149984776Y-101698463D01*
X149991388Y-101716943D01*
X149996157Y-101735982D01*
X149999037Y-101755397D01*
X150000000Y-101775000D01*
X150000000Y-102325000D01*
X149999037Y-102344603D01*
X149996157Y-102364018D01*
X149991388Y-102383057D01*
X149984776Y-102401537D01*
X149976384Y-102419279D01*
X149966294Y-102436114D01*
X149954602Y-102451879D01*
X149941421Y-102466421D01*
X149926879Y-102479602D01*
X149911114Y-102491294D01*
X149894279Y-102501384D01*
X149876537Y-102509776D01*
X149858057Y-102516388D01*
X149839018Y-102521157D01*
X149819603Y-102524037D01*
X149800000Y-102525000D01*
X149400000Y-102525000D01*
X149380397Y-102524037D01*
X149360982Y-102521157D01*
X149341943Y-102516388D01*
X149323463Y-102509776D01*
X149305721Y-102501384D01*
X149288886Y-102491294D01*
X149273121Y-102479602D01*
X149258579Y-102466421D01*
X149245398Y-102451879D01*
X149233706Y-102436114D01*
X149223616Y-102419279D01*
X149215224Y-102401537D01*
X149208612Y-102383057D01*
X149203843Y-102364018D01*
X149200963Y-102344603D01*
X149200000Y-102325000D01*
X149200000Y-101775000D01*
X149200963Y-101755397D01*
X149203843Y-101735982D01*
X149208612Y-101716943D01*
X149215224Y-101698463D01*
X149223616Y-101680721D01*
X149233706Y-101663886D01*
X149245398Y-101648121D01*
X149258579Y-101633579D01*
X149273121Y-101620398D01*
X149288886Y-101608706D01*
X149305721Y-101598616D01*
X149323463Y-101590224D01*
X149341943Y-101583612D01*
X149360982Y-101578843D01*
X149380397Y-101575963D01*
X149400000Y-101575000D01*
X149800000Y-101575000D01*
X149819603Y-101575963D01*
X149819603Y-101575963D01*
G37*
D16*
X149600000Y-102050000D03*
D15*
G36*
X148169603Y-101575963D02*
G01*
X148189018Y-101578843D01*
X148208057Y-101583612D01*
X148226537Y-101590224D01*
X148244279Y-101598616D01*
X148261114Y-101608706D01*
X148276879Y-101620398D01*
X148291421Y-101633579D01*
X148304602Y-101648121D01*
X148316294Y-101663886D01*
X148326384Y-101680721D01*
X148334776Y-101698463D01*
X148341388Y-101716943D01*
X148346157Y-101735982D01*
X148349037Y-101755397D01*
X148350000Y-101775000D01*
X148350000Y-102325000D01*
X148349037Y-102344603D01*
X148346157Y-102364018D01*
X148341388Y-102383057D01*
X148334776Y-102401537D01*
X148326384Y-102419279D01*
X148316294Y-102436114D01*
X148304602Y-102451879D01*
X148291421Y-102466421D01*
X148276879Y-102479602D01*
X148261114Y-102491294D01*
X148244279Y-102501384D01*
X148226537Y-102509776D01*
X148208057Y-102516388D01*
X148189018Y-102521157D01*
X148169603Y-102524037D01*
X148150000Y-102525000D01*
X147750000Y-102525000D01*
X147730397Y-102524037D01*
X147710982Y-102521157D01*
X147691943Y-102516388D01*
X147673463Y-102509776D01*
X147655721Y-102501384D01*
X147638886Y-102491294D01*
X147623121Y-102479602D01*
X147608579Y-102466421D01*
X147595398Y-102451879D01*
X147583706Y-102436114D01*
X147573616Y-102419279D01*
X147565224Y-102401537D01*
X147558612Y-102383057D01*
X147553843Y-102364018D01*
X147550963Y-102344603D01*
X147550000Y-102325000D01*
X147550000Y-101775000D01*
X147550963Y-101755397D01*
X147553843Y-101735982D01*
X147558612Y-101716943D01*
X147565224Y-101698463D01*
X147573616Y-101680721D01*
X147583706Y-101663886D01*
X147595398Y-101648121D01*
X147608579Y-101633579D01*
X147623121Y-101620398D01*
X147638886Y-101608706D01*
X147655721Y-101598616D01*
X147673463Y-101590224D01*
X147691943Y-101583612D01*
X147710982Y-101578843D01*
X147730397Y-101575963D01*
X147750000Y-101575000D01*
X148150000Y-101575000D01*
X148169603Y-101575963D01*
X148169603Y-101575963D01*
G37*
D16*
X147950000Y-102050000D03*
D15*
G36*
X148247054Y-109976083D02*
G01*
X148268895Y-109979323D01*
X148290314Y-109984688D01*
X148311104Y-109992127D01*
X148331064Y-110001568D01*
X148350003Y-110012919D01*
X148367738Y-110026073D01*
X148384099Y-110040901D01*
X148398927Y-110057262D01*
X148412081Y-110074997D01*
X148423432Y-110093936D01*
X148432873Y-110113896D01*
X148440312Y-110134686D01*
X148445677Y-110156105D01*
X148448917Y-110177946D01*
X148450000Y-110200000D01*
X148450000Y-110700000D01*
X148448917Y-110722054D01*
X148445677Y-110743895D01*
X148440312Y-110765314D01*
X148432873Y-110786104D01*
X148423432Y-110806064D01*
X148412081Y-110825003D01*
X148398927Y-110842738D01*
X148384099Y-110859099D01*
X148367738Y-110873927D01*
X148350003Y-110887081D01*
X148331064Y-110898432D01*
X148311104Y-110907873D01*
X148290314Y-110915312D01*
X148268895Y-110920677D01*
X148247054Y-110923917D01*
X148225000Y-110925000D01*
X147775000Y-110925000D01*
X147752946Y-110923917D01*
X147731105Y-110920677D01*
X147709686Y-110915312D01*
X147688896Y-110907873D01*
X147668936Y-110898432D01*
X147649997Y-110887081D01*
X147632262Y-110873927D01*
X147615901Y-110859099D01*
X147601073Y-110842738D01*
X147587919Y-110825003D01*
X147576568Y-110806064D01*
X147567127Y-110786104D01*
X147559688Y-110765314D01*
X147554323Y-110743895D01*
X147551083Y-110722054D01*
X147550000Y-110700000D01*
X147550000Y-110200000D01*
X147551083Y-110177946D01*
X147554323Y-110156105D01*
X147559688Y-110134686D01*
X147567127Y-110113896D01*
X147576568Y-110093936D01*
X147587919Y-110074997D01*
X147601073Y-110057262D01*
X147615901Y-110040901D01*
X147632262Y-110026073D01*
X147649997Y-110012919D01*
X147668936Y-110001568D01*
X147688896Y-109992127D01*
X147709686Y-109984688D01*
X147731105Y-109979323D01*
X147752946Y-109976083D01*
X147775000Y-109975000D01*
X148225000Y-109975000D01*
X148247054Y-109976083D01*
X148247054Y-109976083D01*
G37*
D17*
X148000000Y-110450000D03*
D15*
G36*
X149797054Y-109976083D02*
G01*
X149818895Y-109979323D01*
X149840314Y-109984688D01*
X149861104Y-109992127D01*
X149881064Y-110001568D01*
X149900003Y-110012919D01*
X149917738Y-110026073D01*
X149934099Y-110040901D01*
X149948927Y-110057262D01*
X149962081Y-110074997D01*
X149973432Y-110093936D01*
X149982873Y-110113896D01*
X149990312Y-110134686D01*
X149995677Y-110156105D01*
X149998917Y-110177946D01*
X150000000Y-110200000D01*
X150000000Y-110700000D01*
X149998917Y-110722054D01*
X149995677Y-110743895D01*
X149990312Y-110765314D01*
X149982873Y-110786104D01*
X149973432Y-110806064D01*
X149962081Y-110825003D01*
X149948927Y-110842738D01*
X149934099Y-110859099D01*
X149917738Y-110873927D01*
X149900003Y-110887081D01*
X149881064Y-110898432D01*
X149861104Y-110907873D01*
X149840314Y-110915312D01*
X149818895Y-110920677D01*
X149797054Y-110923917D01*
X149775000Y-110925000D01*
X149325000Y-110925000D01*
X149302946Y-110923917D01*
X149281105Y-110920677D01*
X149259686Y-110915312D01*
X149238896Y-110907873D01*
X149218936Y-110898432D01*
X149199997Y-110887081D01*
X149182262Y-110873927D01*
X149165901Y-110859099D01*
X149151073Y-110842738D01*
X149137919Y-110825003D01*
X149126568Y-110806064D01*
X149117127Y-110786104D01*
X149109688Y-110765314D01*
X149104323Y-110743895D01*
X149101083Y-110722054D01*
X149100000Y-110700000D01*
X149100000Y-110200000D01*
X149101083Y-110177946D01*
X149104323Y-110156105D01*
X149109688Y-110134686D01*
X149117127Y-110113896D01*
X149126568Y-110093936D01*
X149137919Y-110074997D01*
X149151073Y-110057262D01*
X149165901Y-110040901D01*
X149182262Y-110026073D01*
X149199997Y-110012919D01*
X149218936Y-110001568D01*
X149238896Y-109992127D01*
X149259686Y-109984688D01*
X149281105Y-109979323D01*
X149302946Y-109976083D01*
X149325000Y-109975000D01*
X149775000Y-109975000D01*
X149797054Y-109976083D01*
X149797054Y-109976083D01*
G37*
D17*
X149550000Y-110450000D03*
D15*
G36*
X148247054Y-103126083D02*
G01*
X148268895Y-103129323D01*
X148290314Y-103134688D01*
X148311104Y-103142127D01*
X148331064Y-103151568D01*
X148350003Y-103162919D01*
X148367738Y-103176073D01*
X148384099Y-103190901D01*
X148398927Y-103207262D01*
X148412081Y-103224997D01*
X148423432Y-103243936D01*
X148432873Y-103263896D01*
X148440312Y-103284686D01*
X148445677Y-103306105D01*
X148448917Y-103327946D01*
X148450000Y-103350000D01*
X148450000Y-103850000D01*
X148448917Y-103872054D01*
X148445677Y-103893895D01*
X148440312Y-103915314D01*
X148432873Y-103936104D01*
X148423432Y-103956064D01*
X148412081Y-103975003D01*
X148398927Y-103992738D01*
X148384099Y-104009099D01*
X148367738Y-104023927D01*
X148350003Y-104037081D01*
X148331064Y-104048432D01*
X148311104Y-104057873D01*
X148290314Y-104065312D01*
X148268895Y-104070677D01*
X148247054Y-104073917D01*
X148225000Y-104075000D01*
X147775000Y-104075000D01*
X147752946Y-104073917D01*
X147731105Y-104070677D01*
X147709686Y-104065312D01*
X147688896Y-104057873D01*
X147668936Y-104048432D01*
X147649997Y-104037081D01*
X147632262Y-104023927D01*
X147615901Y-104009099D01*
X147601073Y-103992738D01*
X147587919Y-103975003D01*
X147576568Y-103956064D01*
X147567127Y-103936104D01*
X147559688Y-103915314D01*
X147554323Y-103893895D01*
X147551083Y-103872054D01*
X147550000Y-103850000D01*
X147550000Y-103350000D01*
X147551083Y-103327946D01*
X147554323Y-103306105D01*
X147559688Y-103284686D01*
X147567127Y-103263896D01*
X147576568Y-103243936D01*
X147587919Y-103224997D01*
X147601073Y-103207262D01*
X147615901Y-103190901D01*
X147632262Y-103176073D01*
X147649997Y-103162919D01*
X147668936Y-103151568D01*
X147688896Y-103142127D01*
X147709686Y-103134688D01*
X147731105Y-103129323D01*
X147752946Y-103126083D01*
X147775000Y-103125000D01*
X148225000Y-103125000D01*
X148247054Y-103126083D01*
X148247054Y-103126083D01*
G37*
D17*
X148000000Y-103600000D03*
D15*
G36*
X149797054Y-103126083D02*
G01*
X149818895Y-103129323D01*
X149840314Y-103134688D01*
X149861104Y-103142127D01*
X149881064Y-103151568D01*
X149900003Y-103162919D01*
X149917738Y-103176073D01*
X149934099Y-103190901D01*
X149948927Y-103207262D01*
X149962081Y-103224997D01*
X149973432Y-103243936D01*
X149982873Y-103263896D01*
X149990312Y-103284686D01*
X149995677Y-103306105D01*
X149998917Y-103327946D01*
X150000000Y-103350000D01*
X150000000Y-103850000D01*
X149998917Y-103872054D01*
X149995677Y-103893895D01*
X149990312Y-103915314D01*
X149982873Y-103936104D01*
X149973432Y-103956064D01*
X149962081Y-103975003D01*
X149948927Y-103992738D01*
X149934099Y-104009099D01*
X149917738Y-104023927D01*
X149900003Y-104037081D01*
X149881064Y-104048432D01*
X149861104Y-104057873D01*
X149840314Y-104065312D01*
X149818895Y-104070677D01*
X149797054Y-104073917D01*
X149775000Y-104075000D01*
X149325000Y-104075000D01*
X149302946Y-104073917D01*
X149281105Y-104070677D01*
X149259686Y-104065312D01*
X149238896Y-104057873D01*
X149218936Y-104048432D01*
X149199997Y-104037081D01*
X149182262Y-104023927D01*
X149165901Y-104009099D01*
X149151073Y-103992738D01*
X149137919Y-103975003D01*
X149126568Y-103956064D01*
X149117127Y-103936104D01*
X149109688Y-103915314D01*
X149104323Y-103893895D01*
X149101083Y-103872054D01*
X149100000Y-103850000D01*
X149100000Y-103350000D01*
X149101083Y-103327946D01*
X149104323Y-103306105D01*
X149109688Y-103284686D01*
X149117127Y-103263896D01*
X149126568Y-103243936D01*
X149137919Y-103224997D01*
X149151073Y-103207262D01*
X149165901Y-103190901D01*
X149182262Y-103176073D01*
X149199997Y-103162919D01*
X149218936Y-103151568D01*
X149238896Y-103142127D01*
X149259686Y-103134688D01*
X149281105Y-103129323D01*
X149302946Y-103126083D01*
X149325000Y-103125000D01*
X149775000Y-103125000D01*
X149797054Y-103126083D01*
X149797054Y-103126083D01*
G37*
D17*
X149550000Y-103600000D03*
D15*
G36*
X148247054Y-108426083D02*
G01*
X148268895Y-108429323D01*
X148290314Y-108434688D01*
X148311104Y-108442127D01*
X148331064Y-108451568D01*
X148350003Y-108462919D01*
X148367738Y-108476073D01*
X148384099Y-108490901D01*
X148398927Y-108507262D01*
X148412081Y-108524997D01*
X148423432Y-108543936D01*
X148432873Y-108563896D01*
X148440312Y-108584686D01*
X148445677Y-108606105D01*
X148448917Y-108627946D01*
X148450000Y-108650000D01*
X148450000Y-109150000D01*
X148448917Y-109172054D01*
X148445677Y-109193895D01*
X148440312Y-109215314D01*
X148432873Y-109236104D01*
X148423432Y-109256064D01*
X148412081Y-109275003D01*
X148398927Y-109292738D01*
X148384099Y-109309099D01*
X148367738Y-109323927D01*
X148350003Y-109337081D01*
X148331064Y-109348432D01*
X148311104Y-109357873D01*
X148290314Y-109365312D01*
X148268895Y-109370677D01*
X148247054Y-109373917D01*
X148225000Y-109375000D01*
X147775000Y-109375000D01*
X147752946Y-109373917D01*
X147731105Y-109370677D01*
X147709686Y-109365312D01*
X147688896Y-109357873D01*
X147668936Y-109348432D01*
X147649997Y-109337081D01*
X147632262Y-109323927D01*
X147615901Y-109309099D01*
X147601073Y-109292738D01*
X147587919Y-109275003D01*
X147576568Y-109256064D01*
X147567127Y-109236104D01*
X147559688Y-109215314D01*
X147554323Y-109193895D01*
X147551083Y-109172054D01*
X147550000Y-109150000D01*
X147550000Y-108650000D01*
X147551083Y-108627946D01*
X147554323Y-108606105D01*
X147559688Y-108584686D01*
X147567127Y-108563896D01*
X147576568Y-108543936D01*
X147587919Y-108524997D01*
X147601073Y-108507262D01*
X147615901Y-108490901D01*
X147632262Y-108476073D01*
X147649997Y-108462919D01*
X147668936Y-108451568D01*
X147688896Y-108442127D01*
X147709686Y-108434688D01*
X147731105Y-108429323D01*
X147752946Y-108426083D01*
X147775000Y-108425000D01*
X148225000Y-108425000D01*
X148247054Y-108426083D01*
X148247054Y-108426083D01*
G37*
D17*
X148000000Y-108900000D03*
D15*
G36*
X149797054Y-108426083D02*
G01*
X149818895Y-108429323D01*
X149840314Y-108434688D01*
X149861104Y-108442127D01*
X149881064Y-108451568D01*
X149900003Y-108462919D01*
X149917738Y-108476073D01*
X149934099Y-108490901D01*
X149948927Y-108507262D01*
X149962081Y-108524997D01*
X149973432Y-108543936D01*
X149982873Y-108563896D01*
X149990312Y-108584686D01*
X149995677Y-108606105D01*
X149998917Y-108627946D01*
X150000000Y-108650000D01*
X150000000Y-109150000D01*
X149998917Y-109172054D01*
X149995677Y-109193895D01*
X149990312Y-109215314D01*
X149982873Y-109236104D01*
X149973432Y-109256064D01*
X149962081Y-109275003D01*
X149948927Y-109292738D01*
X149934099Y-109309099D01*
X149917738Y-109323927D01*
X149900003Y-109337081D01*
X149881064Y-109348432D01*
X149861104Y-109357873D01*
X149840314Y-109365312D01*
X149818895Y-109370677D01*
X149797054Y-109373917D01*
X149775000Y-109375000D01*
X149325000Y-109375000D01*
X149302946Y-109373917D01*
X149281105Y-109370677D01*
X149259686Y-109365312D01*
X149238896Y-109357873D01*
X149218936Y-109348432D01*
X149199997Y-109337081D01*
X149182262Y-109323927D01*
X149165901Y-109309099D01*
X149151073Y-109292738D01*
X149137919Y-109275003D01*
X149126568Y-109256064D01*
X149117127Y-109236104D01*
X149109688Y-109215314D01*
X149104323Y-109193895D01*
X149101083Y-109172054D01*
X149100000Y-109150000D01*
X149100000Y-108650000D01*
X149101083Y-108627946D01*
X149104323Y-108606105D01*
X149109688Y-108584686D01*
X149117127Y-108563896D01*
X149126568Y-108543936D01*
X149137919Y-108524997D01*
X149151073Y-108507262D01*
X149165901Y-108490901D01*
X149182262Y-108476073D01*
X149199997Y-108462919D01*
X149218936Y-108451568D01*
X149238896Y-108442127D01*
X149259686Y-108434688D01*
X149281105Y-108429323D01*
X149302946Y-108426083D01*
X149325000Y-108425000D01*
X149775000Y-108425000D01*
X149797054Y-108426083D01*
X149797054Y-108426083D01*
G37*
D17*
X149550000Y-108900000D03*
D16*
X147150000Y-108850000D03*
X147050000Y-104600000D03*
X177380002Y-99360000D03*
X148160000Y-106250000D03*
X147171091Y-110478909D03*
X176492490Y-105750000D03*
X169700000Y-104359998D03*
X149450000Y-105950000D03*
X174350000Y-99600000D03*
X176250000Y-99550000D03*
X149000000Y-101300000D03*
D18*
X147255000Y-108155000D02*
X148000000Y-108900000D01*
X147255000Y-107200000D02*
X147255000Y-108155000D01*
X148000000Y-108900000D02*
X147200000Y-108900000D01*
X147200000Y-108900000D02*
X147150000Y-108850000D01*
X147255000Y-105300000D02*
X147184315Y-105300000D01*
X147184315Y-105300000D02*
X147050000Y-105165685D01*
X147050000Y-105165685D02*
X147050000Y-104600000D01*
X147050000Y-104600000D02*
X147050000Y-101350000D01*
X147050000Y-101350000D02*
X147950000Y-100450000D01*
X177350000Y-101000000D02*
X177350000Y-99390002D01*
X177350000Y-99390002D02*
X177380002Y-99360000D01*
X147255000Y-106250000D02*
X148160000Y-106250000D01*
X148000000Y-110450000D02*
X149550000Y-108900000D01*
X148000000Y-110450000D02*
X147200000Y-110450000D01*
X147200000Y-110450000D02*
X147171091Y-110478909D01*
X148222501Y-106187499D02*
X148160000Y-106250000D01*
X148222501Y-104624999D02*
X148222501Y-106187499D01*
X148000000Y-104402498D02*
X148222501Y-104624999D01*
X148000000Y-103600000D02*
X148000000Y-104402498D01*
X165860000Y-110200000D02*
X172000000Y-110200000D01*
X149083306Y-108433306D02*
X149550000Y-108900000D01*
X148300000Y-107650000D02*
X149083306Y-108433306D01*
X148160000Y-106250000D02*
X148300000Y-106390000D01*
X148300000Y-106390000D02*
X148300000Y-107650000D01*
X165260001Y-110799999D02*
X165860000Y-110200000D01*
X164147490Y-111912510D02*
X165260001Y-110799999D01*
X151812510Y-111912510D02*
X164147490Y-111912510D01*
X151300000Y-111400000D02*
X151812510Y-111912510D01*
X148950000Y-111400000D02*
X151300000Y-111400000D01*
X148000000Y-110450000D02*
X148950000Y-111400000D01*
X171900000Y-110100000D02*
X172000000Y-110200000D01*
X170850000Y-101000000D02*
X170850000Y-103800000D01*
X178350000Y-101000000D02*
X178350000Y-103800000D01*
X170850000Y-104925000D02*
X171675000Y-105750000D01*
X172000000Y-110200000D02*
X172042490Y-110200000D01*
X171675000Y-105750000D02*
X175926805Y-105750000D01*
X176850000Y-105392490D02*
X176492490Y-105750000D01*
X175926805Y-105750000D02*
X176492490Y-105750000D01*
X176850000Y-103800000D02*
X176850000Y-105392490D01*
X176092491Y-106149999D02*
X176492490Y-105750000D01*
X172042490Y-110200000D02*
X176092491Y-106149999D01*
X170850000Y-104680000D02*
X170850000Y-104925000D01*
X170850000Y-103800000D02*
X170850000Y-104680000D01*
X170850000Y-104680000D02*
X170529998Y-104359998D01*
X170265685Y-104359998D02*
X169700000Y-104359998D01*
X170529998Y-104359998D02*
X170265685Y-104359998D01*
X149455000Y-105300000D02*
X149455000Y-105945000D01*
X149455000Y-105945000D02*
X149450000Y-105950000D01*
X149455000Y-103695000D02*
X149550000Y-103600000D01*
X149455000Y-105300000D02*
X149455000Y-103695000D01*
X148000000Y-102050000D02*
X149550000Y-103600000D01*
X147950000Y-102050000D02*
X148000000Y-102050000D01*
D19*
X151145510Y-110450000D02*
X152045509Y-111349999D01*
X152045509Y-111349999D02*
X155810001Y-111349999D01*
X155810001Y-111349999D02*
X156360001Y-110799999D01*
X156360001Y-110799999D02*
X156960000Y-110200000D01*
X149550000Y-110450000D02*
X151145510Y-110450000D01*
X172350000Y-100550000D02*
X172350000Y-101000000D01*
X171300000Y-99500000D02*
X172350000Y-100550000D01*
X166750000Y-99500000D02*
X171300000Y-99500000D01*
X165945001Y-98524999D02*
X171874999Y-98524999D01*
X164970000Y-99500000D02*
X165945001Y-98524999D01*
X171874999Y-98524999D02*
X173350000Y-100000000D01*
X173350000Y-100000000D02*
X173350000Y-101000000D01*
X174350000Y-99600000D02*
X174350000Y-101000000D01*
X150025000Y-99800000D02*
X149625000Y-100200000D01*
X152400000Y-99800000D02*
X150025000Y-99800000D01*
X153675001Y-98524999D02*
X152400000Y-99800000D01*
X160098001Y-98524999D02*
X153675001Y-98524999D01*
X161410000Y-99500000D02*
X161073002Y-99500000D01*
X161073002Y-99500000D02*
X160098001Y-98524999D01*
X162885011Y-98024989D02*
X174674989Y-98024989D01*
X161410000Y-99500000D02*
X162885011Y-98024989D01*
X174674989Y-98024989D02*
X175350000Y-98700000D01*
X175350000Y-98700000D02*
X175350000Y-100000000D01*
X175350000Y-100000000D02*
X175350000Y-101000000D01*
X176400000Y-100950000D02*
X176350000Y-101000000D01*
X176250000Y-99500000D02*
X176400000Y-99650000D01*
X176400000Y-99650000D02*
X176400000Y-100950000D01*
D18*
X149600000Y-102050000D02*
X149600000Y-101900000D01*
X149600000Y-101900000D02*
X149000000Y-101300000D01*
D20*
G36*
X179409659Y-98138625D02*
G01*
X179659429Y-98214035D01*
X179889792Y-98336522D01*
X180091980Y-98501422D01*
X180258286Y-98702450D01*
X180382378Y-98931954D01*
X180459531Y-99181195D01*
X180490000Y-99471089D01*
X180490001Y-110417711D01*
X180461375Y-110709660D01*
X180385965Y-110959429D01*
X180263477Y-111189794D01*
X180098579Y-111391979D01*
X179897546Y-111558288D01*
X179668046Y-111682378D01*
X179418805Y-111759531D01*
X179128911Y-111790000D01*
X156444801Y-111790000D01*
X156806200Y-111428602D01*
X156838363Y-111435000D01*
X157081637Y-111435000D01*
X157320236Y-111387540D01*
X157544992Y-111294443D01*
X157747267Y-111159287D01*
X157850000Y-111056554D01*
X157952733Y-111159287D01*
X158155008Y-111294443D01*
X158379764Y-111387540D01*
X158618363Y-111435000D01*
X158861637Y-111435000D01*
X159100236Y-111387540D01*
X159324992Y-111294443D01*
X159527267Y-111159287D01*
X159630000Y-111056554D01*
X159732733Y-111159287D01*
X159935008Y-111294443D01*
X160159764Y-111387540D01*
X160398363Y-111435000D01*
X160641637Y-111435000D01*
X160880236Y-111387540D01*
X161104992Y-111294443D01*
X161307267Y-111159287D01*
X161410000Y-111056554D01*
X161512733Y-111159287D01*
X161715008Y-111294443D01*
X161939764Y-111387540D01*
X162178363Y-111435000D01*
X162421637Y-111435000D01*
X162660236Y-111387540D01*
X162884992Y-111294443D01*
X163087267Y-111159287D01*
X163190000Y-111056554D01*
X163292733Y-111159287D01*
X163495008Y-111294443D01*
X163719764Y-111387540D01*
X163958363Y-111435000D01*
X164201637Y-111435000D01*
X164440236Y-111387540D01*
X164664992Y-111294443D01*
X164867267Y-111159287D01*
X164976790Y-111049764D01*
X165189841Y-111049764D01*
X165237148Y-111273348D01*
X165458516Y-111374237D01*
X165695313Y-111430000D01*
X165938438Y-111438495D01*
X166178549Y-111399395D01*
X166406418Y-111314202D01*
X166482852Y-111273348D01*
X166530159Y-111049764D01*
X165860000Y-110379605D01*
X165189841Y-111049764D01*
X164976790Y-111049764D01*
X165039287Y-110987267D01*
X165174443Y-110784992D01*
X165230333Y-110650062D01*
X165680395Y-110200000D01*
X165666253Y-110185858D01*
X165842110Y-110010000D01*
X165849605Y-110010000D01*
X165860000Y-110020395D01*
X165870395Y-110010000D01*
X165877890Y-110010000D01*
X166053748Y-110185858D01*
X166039605Y-110200000D01*
X166709764Y-110870159D01*
X166933348Y-110822852D01*
X167034237Y-110601484D01*
X167090000Y-110364687D01*
X167098495Y-110121562D01*
X167080328Y-110010000D01*
X167782419Y-110010000D01*
X167810329Y-110007251D01*
X167813308Y-110007272D01*
X167822479Y-110006373D01*
X167870648Y-110001310D01*
X167879383Y-110000450D01*
X167879674Y-110000362D01*
X167919527Y-109996173D01*
X167978152Y-109984139D01*
X168036884Y-109972936D01*
X168045706Y-109970272D01*
X168138925Y-109941416D01*
X168194075Y-109918233D01*
X168249537Y-109895825D01*
X168257666Y-109891502D01*
X168257670Y-109891500D01*
X168257673Y-109891498D01*
X168343511Y-109845086D01*
X168393098Y-109811638D01*
X168443156Y-109778881D01*
X168450297Y-109773057D01*
X168525486Y-109710855D01*
X168567639Y-109668406D01*
X168610371Y-109626561D01*
X168616245Y-109619460D01*
X168677921Y-109543840D01*
X168711052Y-109493975D01*
X168744825Y-109444650D01*
X168749208Y-109436544D01*
X168795020Y-109350383D01*
X168813019Y-109306712D01*
X172462893Y-109306712D01*
X172570726Y-109581338D01*
X172877384Y-109732216D01*
X173207585Y-109820369D01*
X173548639Y-109842409D01*
X173887439Y-109797489D01*
X174210966Y-109687336D01*
X174409274Y-109581338D01*
X174517107Y-109306712D01*
X173490000Y-108279605D01*
X172462893Y-109306712D01*
X168813019Y-109306712D01*
X168817809Y-109295091D01*
X168841378Y-109240102D01*
X168844103Y-109231299D01*
X168872308Y-109137881D01*
X168883933Y-109079174D01*
X168896365Y-109020684D01*
X168897327Y-109011530D01*
X168897328Y-109011524D01*
X168897328Y-109011519D01*
X168906850Y-108914402D01*
X168910000Y-108882419D01*
X168910000Y-108158639D01*
X171747591Y-108158639D01*
X171792511Y-108497439D01*
X171902664Y-108820966D01*
X172008662Y-109019274D01*
X172283288Y-109127107D01*
X173310395Y-108100000D01*
X173669605Y-108100000D01*
X174696712Y-109127107D01*
X174971338Y-109019274D01*
X175122216Y-108712616D01*
X175210369Y-108382415D01*
X175232409Y-108041361D01*
X175187489Y-107702561D01*
X175077336Y-107379034D01*
X174971338Y-107180726D01*
X174696712Y-107072893D01*
X173669605Y-108100000D01*
X173310395Y-108100000D01*
X172283288Y-107072893D01*
X172008662Y-107180726D01*
X171857784Y-107487384D01*
X171769631Y-107817585D01*
X171747591Y-108158639D01*
X168910000Y-108158639D01*
X168910000Y-106893288D01*
X172462893Y-106893288D01*
X173490000Y-107920395D01*
X174517107Y-106893288D01*
X174409274Y-106618662D01*
X174102616Y-106467784D01*
X173772415Y-106379631D01*
X173431361Y-106357591D01*
X173092561Y-106402511D01*
X172769034Y-106512664D01*
X172570726Y-106618662D01*
X172462893Y-106893288D01*
X168910000Y-106893288D01*
X168910000Y-104550000D01*
X169811928Y-104550000D01*
X169824188Y-104674482D01*
X169860498Y-104794180D01*
X169919463Y-104904494D01*
X169998815Y-105001185D01*
X170095506Y-105080537D01*
X170205820Y-105139502D01*
X170325518Y-105175812D01*
X170450000Y-105188072D01*
X170564250Y-105185000D01*
X170723000Y-105026250D01*
X170723000Y-103927000D01*
X169973750Y-103927000D01*
X169815000Y-104085750D01*
X169811928Y-104550000D01*
X168910000Y-104550000D01*
X168910000Y-103050000D01*
X169811928Y-103050000D01*
X169815000Y-103514250D01*
X169973750Y-103673000D01*
X170723000Y-103673000D01*
X170723000Y-103050000D01*
X170911928Y-103050000D01*
X170911928Y-104550000D01*
X170924188Y-104674482D01*
X170960498Y-104794180D01*
X170977000Y-104825053D01*
X170977000Y-105026250D01*
X171135750Y-105185000D01*
X171250000Y-105188072D01*
X171374482Y-105175812D01*
X171400000Y-105168071D01*
X171425518Y-105175812D01*
X171550000Y-105188072D01*
X172150000Y-105188072D01*
X172274482Y-105175812D01*
X172350000Y-105152904D01*
X172425518Y-105175812D01*
X172550000Y-105188072D01*
X173150000Y-105188072D01*
X173274482Y-105175812D01*
X173350000Y-105152904D01*
X173425518Y-105175812D01*
X173550000Y-105188072D01*
X174150000Y-105188072D01*
X174274482Y-105175812D01*
X174350000Y-105152904D01*
X174425518Y-105175812D01*
X174550000Y-105188072D01*
X175150000Y-105188072D01*
X175274482Y-105175812D01*
X175350000Y-105152904D01*
X175425518Y-105175812D01*
X175550000Y-105188072D01*
X176150000Y-105188072D01*
X176274482Y-105175812D01*
X176350000Y-105152904D01*
X176425518Y-105175812D01*
X176550000Y-105188072D01*
X176564250Y-105185000D01*
X176723000Y-105026250D01*
X176723000Y-104825053D01*
X176739502Y-104794180D01*
X176775812Y-104674482D01*
X176788072Y-104550000D01*
X176788072Y-103927000D01*
X176977000Y-103927000D01*
X176977000Y-105026250D01*
X177135750Y-105185000D01*
X177150000Y-105188072D01*
X177274482Y-105175812D01*
X177394180Y-105139502D01*
X177504494Y-105080537D01*
X177550000Y-105043191D01*
X177595506Y-105080537D01*
X177705820Y-105139502D01*
X177825518Y-105175812D01*
X177950000Y-105188072D01*
X178064250Y-105185000D01*
X178223000Y-105026250D01*
X178223000Y-103927000D01*
X178477000Y-103927000D01*
X178477000Y-105026250D01*
X178635750Y-105185000D01*
X178750000Y-105188072D01*
X178874482Y-105175812D01*
X178994180Y-105139502D01*
X179104494Y-105080537D01*
X179201185Y-105001185D01*
X179280537Y-104904494D01*
X179339502Y-104794180D01*
X179375812Y-104674482D01*
X179388072Y-104550000D01*
X179385000Y-104085750D01*
X179226250Y-103927000D01*
X178477000Y-103927000D01*
X178223000Y-103927000D01*
X176977000Y-103927000D01*
X176788072Y-103927000D01*
X176788072Y-103050000D01*
X176775812Y-102925518D01*
X176739502Y-102805820D01*
X176723000Y-102774947D01*
X176723000Y-102573750D01*
X176977000Y-102573750D01*
X176977000Y-103673000D01*
X178223000Y-103673000D01*
X178223000Y-102573750D01*
X178477000Y-102573750D01*
X178477000Y-103673000D01*
X179226250Y-103673000D01*
X179385000Y-103514250D01*
X179388072Y-103050000D01*
X179375812Y-102925518D01*
X179339502Y-102805820D01*
X179280537Y-102695506D01*
X179201185Y-102598815D01*
X179104494Y-102519463D01*
X178994180Y-102460498D01*
X178874482Y-102424188D01*
X178750000Y-102411928D01*
X178635750Y-102415000D01*
X178477000Y-102573750D01*
X178223000Y-102573750D01*
X178064250Y-102415000D01*
X177950000Y-102411928D01*
X177825518Y-102424188D01*
X177705820Y-102460498D01*
X177595506Y-102519463D01*
X177550000Y-102556809D01*
X177504494Y-102519463D01*
X177394180Y-102460498D01*
X177274482Y-102424188D01*
X177150000Y-102411928D01*
X177135750Y-102415000D01*
X176977000Y-102573750D01*
X176723000Y-102573750D01*
X176564250Y-102415000D01*
X176550000Y-102411928D01*
X176425518Y-102424188D01*
X176350000Y-102447096D01*
X176274482Y-102424188D01*
X176150000Y-102411928D01*
X175550000Y-102411928D01*
X175425518Y-102424188D01*
X175350000Y-102447096D01*
X175274482Y-102424188D01*
X175150000Y-102411928D01*
X174550000Y-102411928D01*
X174425518Y-102424188D01*
X174350000Y-102447096D01*
X174274482Y-102424188D01*
X174150000Y-102411928D01*
X173550000Y-102411928D01*
X173425518Y-102424188D01*
X173350000Y-102447096D01*
X173274482Y-102424188D01*
X173150000Y-102411928D01*
X172550000Y-102411928D01*
X172425518Y-102424188D01*
X172350000Y-102447096D01*
X172274482Y-102424188D01*
X172150000Y-102411928D01*
X171550000Y-102411928D01*
X171425518Y-102424188D01*
X171400000Y-102431929D01*
X171374482Y-102424188D01*
X171250000Y-102411928D01*
X171135750Y-102415000D01*
X170977000Y-102573750D01*
X170977000Y-102774947D01*
X170960498Y-102805820D01*
X170924188Y-102925518D01*
X170911928Y-103050000D01*
X170723000Y-103050000D01*
X170723000Y-102573750D01*
X170564250Y-102415000D01*
X170450000Y-102411928D01*
X170325518Y-102424188D01*
X170205820Y-102460498D01*
X170095506Y-102519463D01*
X169998815Y-102598815D01*
X169919463Y-102695506D01*
X169860498Y-102805820D01*
X169824188Y-102925518D01*
X169811928Y-103050000D01*
X168910000Y-103050000D01*
X168910000Y-101750000D01*
X169811928Y-101750000D01*
X169824188Y-101874482D01*
X169860498Y-101994180D01*
X169919463Y-102104494D01*
X169998815Y-102201185D01*
X170095506Y-102280537D01*
X170205820Y-102339502D01*
X170325518Y-102375812D01*
X170450000Y-102388072D01*
X170564250Y-102385000D01*
X170723000Y-102226250D01*
X170723000Y-101127000D01*
X169973750Y-101127000D01*
X169815000Y-101285750D01*
X169811928Y-101750000D01*
X168910000Y-101750000D01*
X168910000Y-100817581D01*
X168907251Y-100789671D01*
X168907272Y-100786693D01*
X168906373Y-100777522D01*
X168901311Y-100729360D01*
X168900450Y-100720617D01*
X168900362Y-100720325D01*
X168896173Y-100680473D01*
X168884140Y-100621854D01*
X168872936Y-100563116D01*
X168870272Y-100554294D01*
X168841416Y-100461075D01*
X168818238Y-100405937D01*
X168795825Y-100350463D01*
X168791498Y-100342327D01*
X168746983Y-100260000D01*
X169811994Y-100260000D01*
X169815000Y-100714250D01*
X169973750Y-100873000D01*
X170723000Y-100873000D01*
X170723000Y-100853000D01*
X170977000Y-100853000D01*
X170977000Y-100873000D01*
X170997000Y-100873000D01*
X170997000Y-101127000D01*
X170977000Y-101127000D01*
X170977000Y-102226250D01*
X171135750Y-102385000D01*
X171250000Y-102388072D01*
X171374482Y-102375812D01*
X171494180Y-102339502D01*
X171604494Y-102280537D01*
X171650000Y-102243191D01*
X171695506Y-102280537D01*
X171805820Y-102339502D01*
X171925518Y-102375812D01*
X172050000Y-102388072D01*
X172650000Y-102388072D01*
X172774482Y-102375812D01*
X172850000Y-102352904D01*
X172925518Y-102375812D01*
X173050000Y-102388072D01*
X173650000Y-102388072D01*
X173774482Y-102375812D01*
X173850000Y-102352904D01*
X173925518Y-102375812D01*
X174050000Y-102388072D01*
X174650000Y-102388072D01*
X174774482Y-102375812D01*
X174850000Y-102352904D01*
X174925518Y-102375812D01*
X175050000Y-102388072D01*
X175650000Y-102388072D01*
X175774482Y-102375812D01*
X175850000Y-102352904D01*
X175925518Y-102375812D01*
X176050000Y-102388072D01*
X176650000Y-102388072D01*
X176774482Y-102375812D01*
X176850000Y-102352904D01*
X176925518Y-102375812D01*
X177050000Y-102388072D01*
X177650000Y-102388072D01*
X177774482Y-102375812D01*
X177800000Y-102368071D01*
X177825518Y-102375812D01*
X177950000Y-102388072D01*
X178064250Y-102385000D01*
X178223000Y-102226250D01*
X178223000Y-102025053D01*
X178239502Y-101994180D01*
X178275812Y-101874482D01*
X178288072Y-101750000D01*
X178288072Y-101127000D01*
X178477000Y-101127000D01*
X178477000Y-102226250D01*
X178635750Y-102385000D01*
X178750000Y-102388072D01*
X178874482Y-102375812D01*
X178994180Y-102339502D01*
X179104494Y-102280537D01*
X179201185Y-102201185D01*
X179280537Y-102104494D01*
X179339502Y-101994180D01*
X179375812Y-101874482D01*
X179388072Y-101750000D01*
X179385000Y-101285750D01*
X179226250Y-101127000D01*
X178477000Y-101127000D01*
X178288072Y-101127000D01*
X178288072Y-100853000D01*
X178477000Y-100853000D01*
X178477000Y-100873000D01*
X179226250Y-100873000D01*
X179385000Y-100714250D01*
X179388072Y-100250000D01*
X179375812Y-100125518D01*
X179339502Y-100005820D01*
X179280537Y-99895506D01*
X179201185Y-99798815D01*
X179104494Y-99719463D01*
X178994180Y-99660498D01*
X178874482Y-99624188D01*
X178750000Y-99611928D01*
X178635750Y-99615000D01*
X178477002Y-99773748D01*
X178477002Y-99615000D01*
X178384557Y-99615000D01*
X178415002Y-99461939D01*
X178415002Y-99258061D01*
X178375228Y-99058102D01*
X178297207Y-98869744D01*
X178183939Y-98700226D01*
X178039776Y-98556063D01*
X177870258Y-98442795D01*
X177681900Y-98364774D01*
X177481941Y-98325000D01*
X177278063Y-98325000D01*
X177078104Y-98364774D01*
X176889746Y-98442795D01*
X176720228Y-98556063D01*
X176671836Y-98604455D01*
X176551898Y-98554774D01*
X176351939Y-98515000D01*
X176148061Y-98515000D01*
X176091492Y-98526252D01*
X176055546Y-98407753D01*
X175984974Y-98275724D01*
X175890001Y-98159999D01*
X175861004Y-98136202D01*
X175834802Y-98110000D01*
X179117721Y-98110000D01*
X179409659Y-98138625D01*
X179409659Y-98138625D01*
G37*
X179409659Y-98138625D02*
X179659429Y-98214035D01*
X179889792Y-98336522D01*
X180091980Y-98501422D01*
X180258286Y-98702450D01*
X180382378Y-98931954D01*
X180459531Y-99181195D01*
X180490000Y-99471089D01*
X180490001Y-110417711D01*
X180461375Y-110709660D01*
X180385965Y-110959429D01*
X180263477Y-111189794D01*
X180098579Y-111391979D01*
X179897546Y-111558288D01*
X179668046Y-111682378D01*
X179418805Y-111759531D01*
X179128911Y-111790000D01*
X156444801Y-111790000D01*
X156806200Y-111428602D01*
X156838363Y-111435000D01*
X157081637Y-111435000D01*
X157320236Y-111387540D01*
X157544992Y-111294443D01*
X157747267Y-111159287D01*
X157850000Y-111056554D01*
X157952733Y-111159287D01*
X158155008Y-111294443D01*
X158379764Y-111387540D01*
X158618363Y-111435000D01*
X158861637Y-111435000D01*
X159100236Y-111387540D01*
X159324992Y-111294443D01*
X159527267Y-111159287D01*
X159630000Y-111056554D01*
X159732733Y-111159287D01*
X159935008Y-111294443D01*
X160159764Y-111387540D01*
X160398363Y-111435000D01*
X160641637Y-111435000D01*
X160880236Y-111387540D01*
X161104992Y-111294443D01*
X161307267Y-111159287D01*
X161410000Y-111056554D01*
X161512733Y-111159287D01*
X161715008Y-111294443D01*
X161939764Y-111387540D01*
X162178363Y-111435000D01*
X162421637Y-111435000D01*
X162660236Y-111387540D01*
X162884992Y-111294443D01*
X163087267Y-111159287D01*
X163190000Y-111056554D01*
X163292733Y-111159287D01*
X163495008Y-111294443D01*
X163719764Y-111387540D01*
X163958363Y-111435000D01*
X164201637Y-111435000D01*
X164440236Y-111387540D01*
X164664992Y-111294443D01*
X164867267Y-111159287D01*
X164976790Y-111049764D01*
X165189841Y-111049764D01*
X165237148Y-111273348D01*
X165458516Y-111374237D01*
X165695313Y-111430000D01*
X165938438Y-111438495D01*
X166178549Y-111399395D01*
X166406418Y-111314202D01*
X166482852Y-111273348D01*
X166530159Y-111049764D01*
X165860000Y-110379605D01*
X165189841Y-111049764D01*
X164976790Y-111049764D01*
X165039287Y-110987267D01*
X165174443Y-110784992D01*
X165230333Y-110650062D01*
X165680395Y-110200000D01*
X165666253Y-110185858D01*
X165842110Y-110010000D01*
X165849605Y-110010000D01*
X165860000Y-110020395D01*
X165870395Y-110010000D01*
X165877890Y-110010000D01*
X166053748Y-110185858D01*
X166039605Y-110200000D01*
X166709764Y-110870159D01*
X166933348Y-110822852D01*
X167034237Y-110601484D01*
X167090000Y-110364687D01*
X167098495Y-110121562D01*
X167080328Y-110010000D01*
X167782419Y-110010000D01*
X167810329Y-110007251D01*
X167813308Y-110007272D01*
X167822479Y-110006373D01*
X167870648Y-110001310D01*
X167879383Y-110000450D01*
X167879674Y-110000362D01*
X167919527Y-109996173D01*
X167978152Y-109984139D01*
X168036884Y-109972936D01*
X168045706Y-109970272D01*
X168138925Y-109941416D01*
X168194075Y-109918233D01*
X168249537Y-109895825D01*
X168257666Y-109891502D01*
X168257670Y-109891500D01*
X168257673Y-109891498D01*
X168343511Y-109845086D01*
X168393098Y-109811638D01*
X168443156Y-109778881D01*
X168450297Y-109773057D01*
X168525486Y-109710855D01*
X168567639Y-109668406D01*
X168610371Y-109626561D01*
X168616245Y-109619460D01*
X168677921Y-109543840D01*
X168711052Y-109493975D01*
X168744825Y-109444650D01*
X168749208Y-109436544D01*
X168795020Y-109350383D01*
X168813019Y-109306712D01*
X172462893Y-109306712D01*
X172570726Y-109581338D01*
X172877384Y-109732216D01*
X173207585Y-109820369D01*
X173548639Y-109842409D01*
X173887439Y-109797489D01*
X174210966Y-109687336D01*
X174409274Y-109581338D01*
X174517107Y-109306712D01*
X173490000Y-108279605D01*
X172462893Y-109306712D01*
X168813019Y-109306712D01*
X168817809Y-109295091D01*
X168841378Y-109240102D01*
X168844103Y-109231299D01*
X168872308Y-109137881D01*
X168883933Y-109079174D01*
X168896365Y-109020684D01*
X168897327Y-109011530D01*
X168897328Y-109011524D01*
X168897328Y-109011519D01*
X168906850Y-108914402D01*
X168910000Y-108882419D01*
X168910000Y-108158639D01*
X171747591Y-108158639D01*
X171792511Y-108497439D01*
X171902664Y-108820966D01*
X172008662Y-109019274D01*
X172283288Y-109127107D01*
X173310395Y-108100000D01*
X173669605Y-108100000D01*
X174696712Y-109127107D01*
X174971338Y-109019274D01*
X175122216Y-108712616D01*
X175210369Y-108382415D01*
X175232409Y-108041361D01*
X175187489Y-107702561D01*
X175077336Y-107379034D01*
X174971338Y-107180726D01*
X174696712Y-107072893D01*
X173669605Y-108100000D01*
X173310395Y-108100000D01*
X172283288Y-107072893D01*
X172008662Y-107180726D01*
X171857784Y-107487384D01*
X171769631Y-107817585D01*
X171747591Y-108158639D01*
X168910000Y-108158639D01*
X168910000Y-106893288D01*
X172462893Y-106893288D01*
X173490000Y-107920395D01*
X174517107Y-106893288D01*
X174409274Y-106618662D01*
X174102616Y-106467784D01*
X173772415Y-106379631D01*
X173431361Y-106357591D01*
X173092561Y-106402511D01*
X172769034Y-106512664D01*
X172570726Y-106618662D01*
X172462893Y-106893288D01*
X168910000Y-106893288D01*
X168910000Y-104550000D01*
X169811928Y-104550000D01*
X169824188Y-104674482D01*
X169860498Y-104794180D01*
X169919463Y-104904494D01*
X169998815Y-105001185D01*
X170095506Y-105080537D01*
X170205820Y-105139502D01*
X170325518Y-105175812D01*
X170450000Y-105188072D01*
X170564250Y-105185000D01*
X170723000Y-105026250D01*
X170723000Y-103927000D01*
X169973750Y-103927000D01*
X169815000Y-104085750D01*
X169811928Y-104550000D01*
X168910000Y-104550000D01*
X168910000Y-103050000D01*
X169811928Y-103050000D01*
X169815000Y-103514250D01*
X169973750Y-103673000D01*
X170723000Y-103673000D01*
X170723000Y-103050000D01*
X170911928Y-103050000D01*
X170911928Y-104550000D01*
X170924188Y-104674482D01*
X170960498Y-104794180D01*
X170977000Y-104825053D01*
X170977000Y-105026250D01*
X171135750Y-105185000D01*
X171250000Y-105188072D01*
X171374482Y-105175812D01*
X171400000Y-105168071D01*
X171425518Y-105175812D01*
X171550000Y-105188072D01*
X172150000Y-105188072D01*
X172274482Y-105175812D01*
X172350000Y-105152904D01*
X172425518Y-105175812D01*
X172550000Y-105188072D01*
X173150000Y-105188072D01*
X173274482Y-105175812D01*
X173350000Y-105152904D01*
X173425518Y-105175812D01*
X173550000Y-105188072D01*
X174150000Y-105188072D01*
X174274482Y-105175812D01*
X174350000Y-105152904D01*
X174425518Y-105175812D01*
X174550000Y-105188072D01*
X175150000Y-105188072D01*
X175274482Y-105175812D01*
X175350000Y-105152904D01*
X175425518Y-105175812D01*
X175550000Y-105188072D01*
X176150000Y-105188072D01*
X176274482Y-105175812D01*
X176350000Y-105152904D01*
X176425518Y-105175812D01*
X176550000Y-105188072D01*
X176564250Y-105185000D01*
X176723000Y-105026250D01*
X176723000Y-104825053D01*
X176739502Y-104794180D01*
X176775812Y-104674482D01*
X176788072Y-104550000D01*
X176788072Y-103927000D01*
X176977000Y-103927000D01*
X176977000Y-105026250D01*
X177135750Y-105185000D01*
X177150000Y-105188072D01*
X177274482Y-105175812D01*
X177394180Y-105139502D01*
X177504494Y-105080537D01*
X177550000Y-105043191D01*
X177595506Y-105080537D01*
X177705820Y-105139502D01*
X177825518Y-105175812D01*
X177950000Y-105188072D01*
X178064250Y-105185000D01*
X178223000Y-105026250D01*
X178223000Y-103927000D01*
X178477000Y-103927000D01*
X178477000Y-105026250D01*
X178635750Y-105185000D01*
X178750000Y-105188072D01*
X178874482Y-105175812D01*
X178994180Y-105139502D01*
X179104494Y-105080537D01*
X179201185Y-105001185D01*
X179280537Y-104904494D01*
X179339502Y-104794180D01*
X179375812Y-104674482D01*
X179388072Y-104550000D01*
X179385000Y-104085750D01*
X179226250Y-103927000D01*
X178477000Y-103927000D01*
X178223000Y-103927000D01*
X176977000Y-103927000D01*
X176788072Y-103927000D01*
X176788072Y-103050000D01*
X176775812Y-102925518D01*
X176739502Y-102805820D01*
X176723000Y-102774947D01*
X176723000Y-102573750D01*
X176977000Y-102573750D01*
X176977000Y-103673000D01*
X178223000Y-103673000D01*
X178223000Y-102573750D01*
X178477000Y-102573750D01*
X178477000Y-103673000D01*
X179226250Y-103673000D01*
X179385000Y-103514250D01*
X179388072Y-103050000D01*
X179375812Y-102925518D01*
X179339502Y-102805820D01*
X179280537Y-102695506D01*
X179201185Y-102598815D01*
X179104494Y-102519463D01*
X178994180Y-102460498D01*
X178874482Y-102424188D01*
X178750000Y-102411928D01*
X178635750Y-102415000D01*
X178477000Y-102573750D01*
X178223000Y-102573750D01*
X178064250Y-102415000D01*
X177950000Y-102411928D01*
X177825518Y-102424188D01*
X177705820Y-102460498D01*
X177595506Y-102519463D01*
X177550000Y-102556809D01*
X177504494Y-102519463D01*
X177394180Y-102460498D01*
X177274482Y-102424188D01*
X177150000Y-102411928D01*
X177135750Y-102415000D01*
X176977000Y-102573750D01*
X176723000Y-102573750D01*
X176564250Y-102415000D01*
X176550000Y-102411928D01*
X176425518Y-102424188D01*
X176350000Y-102447096D01*
X176274482Y-102424188D01*
X176150000Y-102411928D01*
X175550000Y-102411928D01*
X175425518Y-102424188D01*
X175350000Y-102447096D01*
X175274482Y-102424188D01*
X175150000Y-102411928D01*
X174550000Y-102411928D01*
X174425518Y-102424188D01*
X174350000Y-102447096D01*
X174274482Y-102424188D01*
X174150000Y-102411928D01*
X173550000Y-102411928D01*
X173425518Y-102424188D01*
X173350000Y-102447096D01*
X173274482Y-102424188D01*
X173150000Y-102411928D01*
X172550000Y-102411928D01*
X172425518Y-102424188D01*
X172350000Y-102447096D01*
X172274482Y-102424188D01*
X172150000Y-102411928D01*
X171550000Y-102411928D01*
X171425518Y-102424188D01*
X171400000Y-102431929D01*
X171374482Y-102424188D01*
X171250000Y-102411928D01*
X171135750Y-102415000D01*
X170977000Y-102573750D01*
X170977000Y-102774947D01*
X170960498Y-102805820D01*
X170924188Y-102925518D01*
X170911928Y-103050000D01*
X170723000Y-103050000D01*
X170723000Y-102573750D01*
X170564250Y-102415000D01*
X170450000Y-102411928D01*
X170325518Y-102424188D01*
X170205820Y-102460498D01*
X170095506Y-102519463D01*
X169998815Y-102598815D01*
X169919463Y-102695506D01*
X169860498Y-102805820D01*
X169824188Y-102925518D01*
X169811928Y-103050000D01*
X168910000Y-103050000D01*
X168910000Y-101750000D01*
X169811928Y-101750000D01*
X169824188Y-101874482D01*
X169860498Y-101994180D01*
X169919463Y-102104494D01*
X169998815Y-102201185D01*
X170095506Y-102280537D01*
X170205820Y-102339502D01*
X170325518Y-102375812D01*
X170450000Y-102388072D01*
X170564250Y-102385000D01*
X170723000Y-102226250D01*
X170723000Y-101127000D01*
X169973750Y-101127000D01*
X169815000Y-101285750D01*
X169811928Y-101750000D01*
X168910000Y-101750000D01*
X168910000Y-100817581D01*
X168907251Y-100789671D01*
X168907272Y-100786693D01*
X168906373Y-100777522D01*
X168901311Y-100729360D01*
X168900450Y-100720617D01*
X168900362Y-100720325D01*
X168896173Y-100680473D01*
X168884140Y-100621854D01*
X168872936Y-100563116D01*
X168870272Y-100554294D01*
X168841416Y-100461075D01*
X168818238Y-100405937D01*
X168795825Y-100350463D01*
X168791498Y-100342327D01*
X168746983Y-100260000D01*
X169811994Y-100260000D01*
X169815000Y-100714250D01*
X169973750Y-100873000D01*
X170723000Y-100873000D01*
X170723000Y-100853000D01*
X170977000Y-100853000D01*
X170977000Y-100873000D01*
X170997000Y-100873000D01*
X170997000Y-101127000D01*
X170977000Y-101127000D01*
X170977000Y-102226250D01*
X171135750Y-102385000D01*
X171250000Y-102388072D01*
X171374482Y-102375812D01*
X171494180Y-102339502D01*
X171604494Y-102280537D01*
X171650000Y-102243191D01*
X171695506Y-102280537D01*
X171805820Y-102339502D01*
X171925518Y-102375812D01*
X172050000Y-102388072D01*
X172650000Y-102388072D01*
X172774482Y-102375812D01*
X172850000Y-102352904D01*
X172925518Y-102375812D01*
X173050000Y-102388072D01*
X173650000Y-102388072D01*
X173774482Y-102375812D01*
X173850000Y-102352904D01*
X173925518Y-102375812D01*
X174050000Y-102388072D01*
X174650000Y-102388072D01*
X174774482Y-102375812D01*
X174850000Y-102352904D01*
X174925518Y-102375812D01*
X175050000Y-102388072D01*
X175650000Y-102388072D01*
X175774482Y-102375812D01*
X175850000Y-102352904D01*
X175925518Y-102375812D01*
X176050000Y-102388072D01*
X176650000Y-102388072D01*
X176774482Y-102375812D01*
X176850000Y-102352904D01*
X176925518Y-102375812D01*
X177050000Y-102388072D01*
X177650000Y-102388072D01*
X177774482Y-102375812D01*
X177800000Y-102368071D01*
X177825518Y-102375812D01*
X177950000Y-102388072D01*
X178064250Y-102385000D01*
X178223000Y-102226250D01*
X178223000Y-102025053D01*
X178239502Y-101994180D01*
X178275812Y-101874482D01*
X178288072Y-101750000D01*
X178288072Y-101127000D01*
X178477000Y-101127000D01*
X178477000Y-102226250D01*
X178635750Y-102385000D01*
X178750000Y-102388072D01*
X178874482Y-102375812D01*
X178994180Y-102339502D01*
X179104494Y-102280537D01*
X179201185Y-102201185D01*
X179280537Y-102104494D01*
X179339502Y-101994180D01*
X179375812Y-101874482D01*
X179388072Y-101750000D01*
X179385000Y-101285750D01*
X179226250Y-101127000D01*
X178477000Y-101127000D01*
X178288072Y-101127000D01*
X178288072Y-100853000D01*
X178477000Y-100853000D01*
X178477000Y-100873000D01*
X179226250Y-100873000D01*
X179385000Y-100714250D01*
X179388072Y-100250000D01*
X179375812Y-100125518D01*
X179339502Y-100005820D01*
X179280537Y-99895506D01*
X179201185Y-99798815D01*
X179104494Y-99719463D01*
X178994180Y-99660498D01*
X178874482Y-99624188D01*
X178750000Y-99611928D01*
X178635750Y-99615000D01*
X178477002Y-99773748D01*
X178477002Y-99615000D01*
X178384557Y-99615000D01*
X178415002Y-99461939D01*
X178415002Y-99258061D01*
X178375228Y-99058102D01*
X178297207Y-98869744D01*
X178183939Y-98700226D01*
X178039776Y-98556063D01*
X177870258Y-98442795D01*
X177681900Y-98364774D01*
X177481941Y-98325000D01*
X177278063Y-98325000D01*
X177078104Y-98364774D01*
X176889746Y-98442795D01*
X176720228Y-98556063D01*
X176671836Y-98604455D01*
X176551898Y-98554774D01*
X176351939Y-98515000D01*
X176148061Y-98515000D01*
X176091492Y-98526252D01*
X176055546Y-98407753D01*
X175984974Y-98275724D01*
X175890001Y-98159999D01*
X175861004Y-98136202D01*
X175834802Y-98110000D01*
X179117721Y-98110000D01*
X179409659Y-98138625D01*
G36*
X152085199Y-99040000D02*
G01*
X150062322Y-99040000D01*
X150024999Y-99036324D01*
X149987676Y-99040000D01*
X149987667Y-99040000D01*
X149876014Y-99050997D01*
X149757563Y-99086928D01*
X149425000Y-99086928D01*
X149261500Y-99103031D01*
X149104284Y-99150722D01*
X148959392Y-99228169D01*
X148832394Y-99332394D01*
X148800000Y-99371866D01*
X148767606Y-99332394D01*
X148640608Y-99228169D01*
X148495716Y-99150722D01*
X148338500Y-99103031D01*
X148175000Y-99086928D01*
X147775000Y-99086928D01*
X147611500Y-99103031D01*
X147454284Y-99150722D01*
X147309392Y-99228169D01*
X147182394Y-99332394D01*
X147078169Y-99459392D01*
X147000722Y-99604284D01*
X146953031Y-99761500D01*
X146936928Y-99925000D01*
X146936928Y-100299882D01*
X146496971Y-100739839D01*
X146465592Y-100765591D01*
X146362809Y-100890833D01*
X146329874Y-100952450D01*
X146286433Y-101033721D01*
X146239402Y-101188762D01*
X146223521Y-101350000D01*
X146227501Y-101390408D01*
X146227500Y-103968007D01*
X146132795Y-104109744D01*
X146054774Y-104298102D01*
X146015000Y-104498061D01*
X146015000Y-104701939D01*
X146054774Y-104901898D01*
X146086928Y-104979524D01*
X146086928Y-105625000D01*
X146099188Y-105749482D01*
X146106929Y-105775000D01*
X146099188Y-105800518D01*
X146086928Y-105925000D01*
X146090000Y-105964250D01*
X146248750Y-106123000D01*
X146330859Y-106123000D01*
X146370506Y-106155537D01*
X146480820Y-106214502D01*
X146597841Y-106250000D01*
X146480820Y-106285498D01*
X146370506Y-106344463D01*
X146330859Y-106377000D01*
X146248750Y-106377000D01*
X146090000Y-106535750D01*
X146086928Y-106575000D01*
X146099188Y-106699482D01*
X146106929Y-106725000D01*
X146099188Y-106750518D01*
X146086928Y-106875000D01*
X146086928Y-107525000D01*
X146099188Y-107649482D01*
X146135498Y-107769180D01*
X146194463Y-107879494D01*
X146273815Y-107976185D01*
X146370506Y-108055537D01*
X146432501Y-108088674D01*
X146432501Y-108103788D01*
X146346063Y-108190226D01*
X146232795Y-108359744D01*
X146154774Y-108548102D01*
X146115000Y-108748061D01*
X146115000Y-108951939D01*
X146154774Y-109151898D01*
X146232795Y-109340256D01*
X146346063Y-109509774D01*
X146490226Y-109653937D01*
X146659744Y-109767205D01*
X146848102Y-109845226D01*
X146923237Y-109860171D01*
X146911928Y-109975000D01*
X146915000Y-110164250D01*
X147073750Y-110323000D01*
X147873000Y-110323000D01*
X147873000Y-110303000D01*
X148127000Y-110303000D01*
X148127000Y-110323000D01*
X148147000Y-110323000D01*
X148147000Y-110577000D01*
X148127000Y-110577000D01*
X148127000Y-111401250D01*
X148285750Y-111560000D01*
X148450000Y-111563072D01*
X148574482Y-111550812D01*
X148694180Y-111514502D01*
X148804494Y-111455537D01*
X148848649Y-111419300D01*
X148994717Y-111497375D01*
X149156623Y-111546488D01*
X149325000Y-111563072D01*
X149775000Y-111563072D01*
X149943377Y-111546488D01*
X150105283Y-111497375D01*
X150254497Y-111417618D01*
X150385284Y-111310284D01*
X150467585Y-111210000D01*
X150830709Y-111210000D01*
X151410708Y-111790000D01*
X143182279Y-111790000D01*
X142890340Y-111761375D01*
X142640571Y-111685965D01*
X142410206Y-111563477D01*
X142208021Y-111398579D01*
X142041712Y-111197546D01*
X141917622Y-110968046D01*
X141904298Y-110925000D01*
X146911928Y-110925000D01*
X146924188Y-111049482D01*
X146960498Y-111169180D01*
X147019463Y-111279494D01*
X147098815Y-111376185D01*
X147195506Y-111455537D01*
X147305820Y-111514502D01*
X147425518Y-111550812D01*
X147550000Y-111563072D01*
X147714250Y-111560000D01*
X147873000Y-111401250D01*
X147873000Y-110577000D01*
X147073750Y-110577000D01*
X146915000Y-110735750D01*
X146911928Y-110925000D01*
X141904298Y-110925000D01*
X141840469Y-110718805D01*
X141810000Y-110428911D01*
X141810000Y-109256712D01*
X143032893Y-109256712D01*
X143140726Y-109531338D01*
X143447384Y-109682216D01*
X143777585Y-109770369D01*
X144118639Y-109792409D01*
X144457439Y-109747489D01*
X144780966Y-109637336D01*
X144979274Y-109531338D01*
X145087107Y-109256712D01*
X144060000Y-108229605D01*
X143032893Y-109256712D01*
X141810000Y-109256712D01*
X141810000Y-108108639D01*
X142317591Y-108108639D01*
X142362511Y-108447439D01*
X142472664Y-108770966D01*
X142578662Y-108969274D01*
X142853288Y-109077107D01*
X143880395Y-108050000D01*
X144239605Y-108050000D01*
X145266712Y-109077107D01*
X145541338Y-108969274D01*
X145692216Y-108662616D01*
X145780369Y-108332415D01*
X145802409Y-107991361D01*
X145757489Y-107652561D01*
X145647336Y-107329034D01*
X145541338Y-107130726D01*
X145266712Y-107022893D01*
X144239605Y-108050000D01*
X143880395Y-108050000D01*
X142853288Y-107022893D01*
X142578662Y-107130726D01*
X142427784Y-107437384D01*
X142339631Y-107767585D01*
X142317591Y-108108639D01*
X141810000Y-108108639D01*
X141810000Y-106843288D01*
X143032893Y-106843288D01*
X144060000Y-107870395D01*
X145087107Y-106843288D01*
X144979274Y-106568662D01*
X144672616Y-106417784D01*
X144342415Y-106329631D01*
X144001361Y-106307591D01*
X143662561Y-106352511D01*
X143339034Y-106462664D01*
X143140726Y-106568662D01*
X143032893Y-106843288D01*
X141810000Y-106843288D01*
X141810000Y-99482279D01*
X141838625Y-99190341D01*
X141914035Y-98940571D01*
X142036522Y-98710208D01*
X142201422Y-98508020D01*
X142402450Y-98341714D01*
X142631954Y-98217622D01*
X142881195Y-98140469D01*
X143171088Y-98110000D01*
X153015198Y-98110000D01*
X152085199Y-99040000D01*
X152085199Y-99040000D01*
G37*
X152085199Y-99040000D02*
X150062322Y-99040000D01*
X150024999Y-99036324D01*
X149987676Y-99040000D01*
X149987667Y-99040000D01*
X149876014Y-99050997D01*
X149757563Y-99086928D01*
X149425000Y-99086928D01*
X149261500Y-99103031D01*
X149104284Y-99150722D01*
X148959392Y-99228169D01*
X148832394Y-99332394D01*
X148800000Y-99371866D01*
X148767606Y-99332394D01*
X148640608Y-99228169D01*
X148495716Y-99150722D01*
X148338500Y-99103031D01*
X148175000Y-99086928D01*
X147775000Y-99086928D01*
X147611500Y-99103031D01*
X147454284Y-99150722D01*
X147309392Y-99228169D01*
X147182394Y-99332394D01*
X147078169Y-99459392D01*
X147000722Y-99604284D01*
X146953031Y-99761500D01*
X146936928Y-99925000D01*
X146936928Y-100299882D01*
X146496971Y-100739839D01*
X146465592Y-100765591D01*
X146362809Y-100890833D01*
X146329874Y-100952450D01*
X146286433Y-101033721D01*
X146239402Y-101188762D01*
X146223521Y-101350000D01*
X146227501Y-101390408D01*
X146227500Y-103968007D01*
X146132795Y-104109744D01*
X146054774Y-104298102D01*
X146015000Y-104498061D01*
X146015000Y-104701939D01*
X146054774Y-104901898D01*
X146086928Y-104979524D01*
X146086928Y-105625000D01*
X146099188Y-105749482D01*
X146106929Y-105775000D01*
X146099188Y-105800518D01*
X146086928Y-105925000D01*
X146090000Y-105964250D01*
X146248750Y-106123000D01*
X146330859Y-106123000D01*
X146370506Y-106155537D01*
X146480820Y-106214502D01*
X146597841Y-106250000D01*
X146480820Y-106285498D01*
X146370506Y-106344463D01*
X146330859Y-106377000D01*
X146248750Y-106377000D01*
X146090000Y-106535750D01*
X146086928Y-106575000D01*
X146099188Y-106699482D01*
X146106929Y-106725000D01*
X146099188Y-106750518D01*
X146086928Y-106875000D01*
X146086928Y-107525000D01*
X146099188Y-107649482D01*
X146135498Y-107769180D01*
X146194463Y-107879494D01*
X146273815Y-107976185D01*
X146370506Y-108055537D01*
X146432501Y-108088674D01*
X146432501Y-108103788D01*
X146346063Y-108190226D01*
X146232795Y-108359744D01*
X146154774Y-108548102D01*
X146115000Y-108748061D01*
X146115000Y-108951939D01*
X146154774Y-109151898D01*
X146232795Y-109340256D01*
X146346063Y-109509774D01*
X146490226Y-109653937D01*
X146659744Y-109767205D01*
X146848102Y-109845226D01*
X146923237Y-109860171D01*
X146911928Y-109975000D01*
X146915000Y-110164250D01*
X147073750Y-110323000D01*
X147873000Y-110323000D01*
X147873000Y-110303000D01*
X148127000Y-110303000D01*
X148127000Y-110323000D01*
X148147000Y-110323000D01*
X148147000Y-110577000D01*
X148127000Y-110577000D01*
X148127000Y-111401250D01*
X148285750Y-111560000D01*
X148450000Y-111563072D01*
X148574482Y-111550812D01*
X148694180Y-111514502D01*
X148804494Y-111455537D01*
X148848649Y-111419300D01*
X148994717Y-111497375D01*
X149156623Y-111546488D01*
X149325000Y-111563072D01*
X149775000Y-111563072D01*
X149943377Y-111546488D01*
X150105283Y-111497375D01*
X150254497Y-111417618D01*
X150385284Y-111310284D01*
X150467585Y-111210000D01*
X150830709Y-111210000D01*
X151410708Y-111790000D01*
X143182279Y-111790000D01*
X142890340Y-111761375D01*
X142640571Y-111685965D01*
X142410206Y-111563477D01*
X142208021Y-111398579D01*
X142041712Y-111197546D01*
X141917622Y-110968046D01*
X141904298Y-110925000D01*
X146911928Y-110925000D01*
X146924188Y-111049482D01*
X146960498Y-111169180D01*
X147019463Y-111279494D01*
X147098815Y-111376185D01*
X147195506Y-111455537D01*
X147305820Y-111514502D01*
X147425518Y-111550812D01*
X147550000Y-111563072D01*
X147714250Y-111560000D01*
X147873000Y-111401250D01*
X147873000Y-110577000D01*
X147073750Y-110577000D01*
X146915000Y-110735750D01*
X146911928Y-110925000D01*
X141904298Y-110925000D01*
X141840469Y-110718805D01*
X141810000Y-110428911D01*
X141810000Y-109256712D01*
X143032893Y-109256712D01*
X143140726Y-109531338D01*
X143447384Y-109682216D01*
X143777585Y-109770369D01*
X144118639Y-109792409D01*
X144457439Y-109747489D01*
X144780966Y-109637336D01*
X144979274Y-109531338D01*
X145087107Y-109256712D01*
X144060000Y-108229605D01*
X143032893Y-109256712D01*
X141810000Y-109256712D01*
X141810000Y-108108639D01*
X142317591Y-108108639D01*
X142362511Y-108447439D01*
X142472664Y-108770966D01*
X142578662Y-108969274D01*
X142853288Y-109077107D01*
X143880395Y-108050000D01*
X144239605Y-108050000D01*
X145266712Y-109077107D01*
X145541338Y-108969274D01*
X145692216Y-108662616D01*
X145780369Y-108332415D01*
X145802409Y-107991361D01*
X145757489Y-107652561D01*
X145647336Y-107329034D01*
X145541338Y-107130726D01*
X145266712Y-107022893D01*
X144239605Y-108050000D01*
X143880395Y-108050000D01*
X142853288Y-107022893D01*
X142578662Y-107130726D01*
X142427784Y-107437384D01*
X142339631Y-107767585D01*
X142317591Y-108108639D01*
X141810000Y-108108639D01*
X141810000Y-106843288D01*
X143032893Y-106843288D01*
X144060000Y-107870395D01*
X145087107Y-106843288D01*
X144979274Y-106568662D01*
X144672616Y-106417784D01*
X144342415Y-106329631D01*
X144001361Y-106307591D01*
X143662561Y-106352511D01*
X143339034Y-106462664D01*
X143140726Y-106568662D01*
X143032893Y-106843288D01*
X141810000Y-106843288D01*
X141810000Y-99482279D01*
X141838625Y-99190341D01*
X141914035Y-98940571D01*
X142036522Y-98710208D01*
X142201422Y-98508020D01*
X142402450Y-98341714D01*
X142631954Y-98217622D01*
X142881195Y-98140469D01*
X143171088Y-98110000D01*
X153015198Y-98110000D01*
X152085199Y-99040000D01*
G36*
X149677000Y-108773000D02*
G01*
X149697000Y-108773000D01*
X149697000Y-109027000D01*
X149677000Y-109027000D01*
X149677000Y-109047000D01*
X149423000Y-109047000D01*
X149423000Y-109027000D01*
X149403000Y-109027000D01*
X149403000Y-108773000D01*
X149423000Y-108773000D01*
X149423000Y-108753000D01*
X149677000Y-108753000D01*
X149677000Y-108773000D01*
X149677000Y-108773000D01*
G37*
X149677000Y-108773000D02*
X149697000Y-108773000D01*
X149697000Y-109027000D01*
X149677000Y-109027000D01*
X149677000Y-109047000D01*
X149423000Y-109047000D01*
X149423000Y-109027000D01*
X149403000Y-109027000D01*
X149403000Y-108773000D01*
X149423000Y-108773000D01*
X149423000Y-108753000D01*
X149677000Y-108753000D01*
X149677000Y-108773000D01*
G36*
X148415000Y-106004518D02*
G01*
X148415000Y-106051939D01*
X148454774Y-106251898D01*
X148512750Y-106391862D01*
X148473815Y-106423815D01*
X148399103Y-106514853D01*
X148261250Y-106377000D01*
X148179141Y-106377000D01*
X148139494Y-106344463D01*
X148029180Y-106285498D01*
X147912159Y-106250000D01*
X148029180Y-106214502D01*
X148139494Y-106155537D01*
X148179141Y-106123000D01*
X148261250Y-106123000D01*
X148399103Y-105985147D01*
X148415000Y-106004518D01*
X148415000Y-106004518D01*
G37*
X148415000Y-106004518D02*
X148415000Y-106051939D01*
X148454774Y-106251898D01*
X148512750Y-106391862D01*
X148473815Y-106423815D01*
X148399103Y-106514853D01*
X148261250Y-106377000D01*
X148179141Y-106377000D01*
X148139494Y-106344463D01*
X148029180Y-106285498D01*
X147912159Y-106250000D01*
X148029180Y-106214502D01*
X148139494Y-106155537D01*
X148179141Y-106123000D01*
X148261250Y-106123000D01*
X148399103Y-105985147D01*
X148415000Y-106004518D01*
G36*
X148127000Y-103473000D02*
G01*
X148147000Y-103473000D01*
X148147000Y-103727000D01*
X148127000Y-103727000D01*
X148127000Y-103747000D01*
X147873000Y-103747000D01*
X147873000Y-103727000D01*
X147872500Y-103727000D01*
X147872500Y-103473000D01*
X147873000Y-103473000D01*
X147873000Y-103453000D01*
X148127000Y-103453000D01*
X148127000Y-103473000D01*
X148127000Y-103473000D01*
G37*
X148127000Y-103473000D02*
X148147000Y-103473000D01*
X148147000Y-103727000D01*
X148127000Y-103727000D01*
X148127000Y-103747000D01*
X147873000Y-103747000D01*
X147873000Y-103727000D01*
X147872500Y-103727000D01*
X147872500Y-103473000D01*
X147873000Y-103473000D01*
X147873000Y-103453000D01*
X148127000Y-103453000D01*
X148127000Y-103473000D01*
M02*
