%FSLAX45Y45*%
G04 Gerber Fmt 4.5, Leading zero omitted, Abs format (unit mm)*
G04 Created by KiCad (PCBNEW (5.1.4)-1) date 2025-05-10 17:32:07*
%MOMM*%
%LPD*%
G04 APERTURE LIST*
%ADD10C,0.050000*%
%ADD11C,0.200000*%
%ADD12C,0.300000*%
G04 APERTURE END LIST*
D10*
X18115000Y-11045000D02*
G75*
G02X17915000Y-11245000I-200000J0D01*
G01*
X17915000Y-9745000D02*
G75*
G02X18115000Y-9945000I0J-200000D01*
G01*
X14315000Y-11245000D02*
G75*
G02X14115000Y-11045000I0J200000D01*
G01*
X14115000Y-9945000D02*
G75*
G02X14315000Y-9745000I200000J0D01*
G01*
X16825000Y-10085000D02*
X16825000Y-10885000D01*
X15105000Y-10035000D02*
X16775000Y-10035000D01*
X15055000Y-10885000D02*
X15055000Y-10085000D01*
X16775000Y-10935000D02*
X15105000Y-10935000D01*
X16825000Y-10885000D02*
G75*
G02X16775000Y-10935000I-50000J0D01*
G01*
X16775000Y-10035000D02*
G75*
G02X16825000Y-10085000I0J-50000D01*
G01*
X15055000Y-10085000D02*
G75*
G02X15105000Y-10035000I50000J0D01*
G01*
X15105000Y-10935000D02*
G75*
G02X15055000Y-10885000I0J50000D01*
G01*
X17915000Y-11245000D02*
X14315000Y-11245000D01*
X18115000Y-9945000D02*
X18115000Y-11045000D01*
X14315000Y-9745000D02*
X17915000Y-9745000D01*
X14115000Y-11045000D02*
X14115000Y-9945000D01*
D11*
X14685000Y-10440000D02*
X14725000Y-10480000D01*
X14725000Y-10440000D02*
X14685000Y-10480000D01*
X14695000Y-10865000D02*
X14735000Y-10905000D01*
X14735000Y-10865000D02*
X14695000Y-10905000D01*
X14697109Y-11027891D02*
X14737109Y-11067891D01*
X14737109Y-11027891D02*
X14697109Y-11067891D01*
X14796000Y-10605000D02*
X14836000Y-10645000D01*
X14836000Y-10605000D02*
X14796000Y-10645000D01*
X14880000Y-10110000D02*
X14920000Y-10150000D01*
X14920000Y-10110000D02*
X14880000Y-10150000D01*
X14925000Y-10575000D02*
X14965000Y-10615000D01*
X14965000Y-10575000D02*
X14925000Y-10615000D01*
X16950000Y-10416000D02*
X16990000Y-10456000D01*
X16990000Y-10416000D02*
X16950000Y-10456000D01*
X17415000Y-9940000D02*
X17455000Y-9980000D01*
X17455000Y-9940000D02*
X17415000Y-9980000D01*
X17605000Y-9935000D02*
X17645000Y-9975000D01*
X17645000Y-9935000D02*
X17605000Y-9975000D01*
X17629249Y-10555000D02*
X17669249Y-10595000D01*
X17669249Y-10555000D02*
X17629249Y-10595000D01*
X17718000Y-9916000D02*
X17758000Y-9956000D01*
X17758000Y-9916000D02*
X17718000Y-9956000D01*
X15375000Y-11020000D02*
G75*
G03X15375000Y-11020000I-35000J0D01*
G01*
X15464000Y-9950000D02*
G75*
G03X15464000Y-9950000I-35000J0D01*
G01*
X15553000Y-11020000D02*
G75*
G03X15553000Y-11020000I-35000J0D01*
G01*
X15642000Y-9950000D02*
G75*
G03X15642000Y-9950000I-35000J0D01*
G01*
X15731000Y-11020000D02*
G75*
G03X15731000Y-11020000I-35000J0D01*
G01*
X15820000Y-9950000D02*
G75*
G03X15820000Y-9950000I-35000J0D01*
G01*
X15909000Y-11020000D02*
G75*
G03X15909000Y-11020000I-35000J0D01*
G01*
X15998000Y-9950000D02*
G75*
G03X15998000Y-9950000I-35000J0D01*
G01*
X16087000Y-11020000D02*
G75*
G03X16087000Y-11020000I-35000J0D01*
G01*
X16176000Y-9950000D02*
G75*
G03X16176000Y-9950000I-35000J0D01*
G01*
X16265000Y-11020000D02*
G75*
G03X16265000Y-11020000I-35000J0D01*
G01*
X16354000Y-9950000D02*
G75*
G03X16354000Y-9950000I-35000J0D01*
G01*
X16443000Y-11020000D02*
G75*
G03X16443000Y-11020000I-35000J0D01*
G01*
X16532000Y-9950000D02*
G75*
G03X16532000Y-9950000I-35000J0D01*
G01*
X16621000Y-11020000D02*
G75*
G03X16621000Y-11020000I-35000J0D01*
G01*
X16710000Y-9950000D02*
G75*
G03X16710000Y-9950000I-35000J0D01*
G01*
D12*
X14398928Y-11713214D02*
X14398928Y-11413214D01*
X14470357Y-11413214D01*
X14513214Y-11427500D01*
X14541786Y-11456071D01*
X14556071Y-11484643D01*
X14570357Y-11541786D01*
X14570357Y-11584643D01*
X14556071Y-11641786D01*
X14541786Y-11670357D01*
X14513214Y-11698929D01*
X14470357Y-11713214D01*
X14398928Y-11713214D01*
X14698928Y-11713214D02*
X14698928Y-11513214D01*
X14698928Y-11570357D02*
X14713214Y-11541786D01*
X14727500Y-11527500D01*
X14756071Y-11513214D01*
X14784643Y-11513214D01*
X14884643Y-11713214D02*
X14884643Y-11513214D01*
X14884643Y-11413214D02*
X14870357Y-11427500D01*
X14884643Y-11441786D01*
X14898928Y-11427500D01*
X14884643Y-11413214D01*
X14884643Y-11441786D01*
X15070357Y-11713214D02*
X15041786Y-11698929D01*
X15027500Y-11670357D01*
X15027500Y-11413214D01*
X15227500Y-11713214D02*
X15198928Y-11698929D01*
X15184643Y-11670357D01*
X15184643Y-11413214D01*
X15570357Y-11713214D02*
X15570357Y-11413214D01*
X15670357Y-11627500D01*
X15770357Y-11413214D01*
X15770357Y-11713214D01*
X16041786Y-11713214D02*
X16041786Y-11556071D01*
X16027500Y-11527500D01*
X15998928Y-11513214D01*
X15941786Y-11513214D01*
X15913214Y-11527500D01*
X16041786Y-11698929D02*
X16013214Y-11713214D01*
X15941786Y-11713214D01*
X15913214Y-11698929D01*
X15898928Y-11670357D01*
X15898928Y-11641786D01*
X15913214Y-11613214D01*
X15941786Y-11598929D01*
X16013214Y-11598929D01*
X16041786Y-11584643D01*
X16184643Y-11513214D02*
X16184643Y-11813214D01*
X16184643Y-11527500D02*
X16213214Y-11513214D01*
X16270357Y-11513214D01*
X16298928Y-11527500D01*
X16313214Y-11541786D01*
X16327500Y-11570357D01*
X16327500Y-11656071D01*
X16313214Y-11684643D01*
X16298928Y-11698929D01*
X16270357Y-11713214D01*
X16213214Y-11713214D01*
X16184643Y-11698929D01*
X16456071Y-11684643D02*
X16470357Y-11698929D01*
X16456071Y-11713214D01*
X16441786Y-11698929D01*
X16456071Y-11684643D01*
X16456071Y-11713214D01*
X16456071Y-11527500D02*
X16470357Y-11541786D01*
X16456071Y-11556071D01*
X16441786Y-11541786D01*
X16456071Y-11527500D01*
X16456071Y-11556071D01*
X14072500Y-12187500D02*
X14112500Y-12227500D01*
X14112500Y-12187500D02*
X14072500Y-12227500D01*
X14456071Y-12043214D02*
X14484643Y-12043214D01*
X14513214Y-12057500D01*
X14527500Y-12071786D01*
X14541786Y-12100357D01*
X14556071Y-12157500D01*
X14556071Y-12228929D01*
X14541786Y-12286071D01*
X14527500Y-12314643D01*
X14513214Y-12328929D01*
X14484643Y-12343214D01*
X14456071Y-12343214D01*
X14427500Y-12328929D01*
X14413214Y-12314643D01*
X14398928Y-12286071D01*
X14384643Y-12228929D01*
X14384643Y-12157500D01*
X14398928Y-12100357D01*
X14413214Y-12071786D01*
X14427500Y-12057500D01*
X14456071Y-12043214D01*
X14684643Y-12314643D02*
X14698928Y-12328929D01*
X14684643Y-12343214D01*
X14670357Y-12328929D01*
X14684643Y-12314643D01*
X14684643Y-12343214D01*
X14956071Y-12143214D02*
X14956071Y-12343214D01*
X14884643Y-12028929D02*
X14813214Y-12243214D01*
X14998928Y-12243214D01*
X15170357Y-12043214D02*
X15198928Y-12043214D01*
X15227500Y-12057500D01*
X15241786Y-12071786D01*
X15256071Y-12100357D01*
X15270357Y-12157500D01*
X15270357Y-12228929D01*
X15256071Y-12286071D01*
X15241786Y-12314643D01*
X15227500Y-12328929D01*
X15198928Y-12343214D01*
X15170357Y-12343214D01*
X15141786Y-12328929D01*
X15127500Y-12314643D01*
X15113214Y-12286071D01*
X15098928Y-12228929D01*
X15098928Y-12157500D01*
X15113214Y-12100357D01*
X15127500Y-12071786D01*
X15141786Y-12057500D01*
X15170357Y-12043214D01*
X15398928Y-12343214D02*
X15398928Y-12143214D01*
X15398928Y-12171786D02*
X15413214Y-12157500D01*
X15441786Y-12143214D01*
X15484643Y-12143214D01*
X15513214Y-12157500D01*
X15527500Y-12186071D01*
X15527500Y-12343214D01*
X15527500Y-12186071D02*
X15541786Y-12157500D01*
X15570357Y-12143214D01*
X15613214Y-12143214D01*
X15641786Y-12157500D01*
X15656071Y-12186071D01*
X15656071Y-12343214D01*
X15798928Y-12343214D02*
X15798928Y-12143214D01*
X15798928Y-12171786D02*
X15813214Y-12157500D01*
X15841786Y-12143214D01*
X15884643Y-12143214D01*
X15913214Y-12157500D01*
X15927500Y-12186071D01*
X15927500Y-12343214D01*
X15927500Y-12186071D02*
X15941786Y-12157500D01*
X15970357Y-12143214D01*
X16013214Y-12143214D01*
X16041786Y-12157500D01*
X16056071Y-12186071D01*
X16056071Y-12343214D01*
X16641786Y-12028929D02*
X16384643Y-12414643D01*
X17027500Y-12043214D02*
X17056071Y-12043214D01*
X17084643Y-12057500D01*
X17098928Y-12071786D01*
X17113214Y-12100357D01*
X17127500Y-12157500D01*
X17127500Y-12228929D01*
X17113214Y-12286071D01*
X17098928Y-12314643D01*
X17084643Y-12328929D01*
X17056071Y-12343214D01*
X17027500Y-12343214D01*
X16998928Y-12328929D01*
X16984643Y-12314643D01*
X16970357Y-12286071D01*
X16956071Y-12228929D01*
X16956071Y-12157500D01*
X16970357Y-12100357D01*
X16984643Y-12071786D01*
X16998928Y-12057500D01*
X17027500Y-12043214D01*
X17256071Y-12314643D02*
X17270357Y-12328929D01*
X17256071Y-12343214D01*
X17241786Y-12328929D01*
X17256071Y-12314643D01*
X17256071Y-12343214D01*
X17456071Y-12043214D02*
X17484643Y-12043214D01*
X17513214Y-12057500D01*
X17527500Y-12071786D01*
X17541786Y-12100357D01*
X17556071Y-12157500D01*
X17556071Y-12228929D01*
X17541786Y-12286071D01*
X17527500Y-12314643D01*
X17513214Y-12328929D01*
X17484643Y-12343214D01*
X17456071Y-12343214D01*
X17427500Y-12328929D01*
X17413214Y-12314643D01*
X17398928Y-12286071D01*
X17384643Y-12228929D01*
X17384643Y-12157500D01*
X17398928Y-12100357D01*
X17413214Y-12071786D01*
X17427500Y-12057500D01*
X17456071Y-12043214D01*
X17841786Y-12343214D02*
X17670357Y-12343214D01*
X17756071Y-12343214D02*
X17756071Y-12043214D01*
X17727500Y-12086071D01*
X17698928Y-12114643D01*
X17670357Y-12128929D01*
X18098928Y-12043214D02*
X18041786Y-12043214D01*
X18013214Y-12057500D01*
X17998928Y-12071786D01*
X17970357Y-12114643D01*
X17956071Y-12171786D01*
X17956071Y-12286071D01*
X17970357Y-12314643D01*
X17984643Y-12328929D01*
X18013214Y-12343214D01*
X18070357Y-12343214D01*
X18098928Y-12328929D01*
X18113214Y-12314643D01*
X18127500Y-12286071D01*
X18127500Y-12214643D01*
X18113214Y-12186071D01*
X18098928Y-12171786D01*
X18070357Y-12157500D01*
X18013214Y-12157500D01*
X17984643Y-12171786D01*
X17970357Y-12186071D01*
X17956071Y-12214643D01*
X18241786Y-12043214D02*
X18241786Y-12100357D01*
X18356071Y-12043214D02*
X18356071Y-12100357D01*
X18798928Y-12457500D02*
X18784643Y-12443214D01*
X18756071Y-12400357D01*
X18741786Y-12371786D01*
X18727500Y-12328929D01*
X18713214Y-12257500D01*
X18713214Y-12200357D01*
X18727500Y-12128929D01*
X18741786Y-12086071D01*
X18756071Y-12057500D01*
X18784643Y-12014643D01*
X18798928Y-12000357D01*
X19070357Y-12343214D02*
X18898928Y-12343214D01*
X18984643Y-12343214D02*
X18984643Y-12043214D01*
X18956071Y-12086071D01*
X18927500Y-12114643D01*
X18898928Y-12128929D01*
X19356071Y-12343214D02*
X19184643Y-12343214D01*
X19270357Y-12343214D02*
X19270357Y-12043214D01*
X19241786Y-12086071D01*
X19213214Y-12114643D01*
X19184643Y-12128929D01*
X19713214Y-12343214D02*
X19713214Y-12043214D01*
X19841786Y-12343214D02*
X19841786Y-12186071D01*
X19827500Y-12157500D01*
X19798928Y-12143214D01*
X19756071Y-12143214D01*
X19727500Y-12157500D01*
X19713214Y-12171786D01*
X20027500Y-12343214D02*
X19998928Y-12328929D01*
X19984643Y-12314643D01*
X19970357Y-12286071D01*
X19970357Y-12200357D01*
X19984643Y-12171786D01*
X19998928Y-12157500D01*
X20027500Y-12143214D01*
X20070357Y-12143214D01*
X20098928Y-12157500D01*
X20113214Y-12171786D01*
X20127500Y-12200357D01*
X20127500Y-12286071D01*
X20113214Y-12314643D01*
X20098928Y-12328929D01*
X20070357Y-12343214D01*
X20027500Y-12343214D01*
X20298928Y-12343214D02*
X20270357Y-12328929D01*
X20256071Y-12300357D01*
X20256071Y-12043214D01*
X20527500Y-12328929D02*
X20498928Y-12343214D01*
X20441786Y-12343214D01*
X20413214Y-12328929D01*
X20398928Y-12300357D01*
X20398928Y-12186071D01*
X20413214Y-12157500D01*
X20441786Y-12143214D01*
X20498928Y-12143214D01*
X20527500Y-12157500D01*
X20541786Y-12186071D01*
X20541786Y-12214643D01*
X20398928Y-12243214D01*
X20656071Y-12328929D02*
X20684643Y-12343214D01*
X20741786Y-12343214D01*
X20770357Y-12328929D01*
X20784643Y-12300357D01*
X20784643Y-12286071D01*
X20770357Y-12257500D01*
X20741786Y-12243214D01*
X20698928Y-12243214D01*
X20670357Y-12228929D01*
X20656071Y-12200357D01*
X20656071Y-12186071D01*
X20670357Y-12157500D01*
X20698928Y-12143214D01*
X20741786Y-12143214D01*
X20770357Y-12157500D01*
X20884643Y-12457500D02*
X20898928Y-12443214D01*
X20927500Y-12400357D01*
X20941786Y-12371786D01*
X20956071Y-12328929D01*
X20970357Y-12257500D01*
X20970357Y-12200357D01*
X20956071Y-12128929D01*
X20941786Y-12086071D01*
X20927500Y-12057500D01*
X20898928Y-12014643D01*
X20884643Y-12000357D01*
X14112500Y-12603500D02*
G75*
G03X14112500Y-12603500I-35000J0D01*
G01*
X14456071Y-12439214D02*
X14484643Y-12439214D01*
X14513214Y-12453500D01*
X14527500Y-12467786D01*
X14541786Y-12496357D01*
X14556071Y-12553500D01*
X14556071Y-12624929D01*
X14541786Y-12682071D01*
X14527500Y-12710643D01*
X14513214Y-12724929D01*
X14484643Y-12739214D01*
X14456071Y-12739214D01*
X14427500Y-12724929D01*
X14413214Y-12710643D01*
X14398928Y-12682071D01*
X14384643Y-12624929D01*
X14384643Y-12553500D01*
X14398928Y-12496357D01*
X14413214Y-12467786D01*
X14427500Y-12453500D01*
X14456071Y-12439214D01*
X14684643Y-12710643D02*
X14698928Y-12724929D01*
X14684643Y-12739214D01*
X14670357Y-12724929D01*
X14684643Y-12710643D01*
X14684643Y-12739214D01*
X14798928Y-12439214D02*
X14998928Y-12439214D01*
X14870357Y-12739214D01*
X15170357Y-12439214D02*
X15198928Y-12439214D01*
X15227500Y-12453500D01*
X15241786Y-12467786D01*
X15256071Y-12496357D01*
X15270357Y-12553500D01*
X15270357Y-12624929D01*
X15256071Y-12682071D01*
X15241786Y-12710643D01*
X15227500Y-12724929D01*
X15198928Y-12739214D01*
X15170357Y-12739214D01*
X15141786Y-12724929D01*
X15127500Y-12710643D01*
X15113214Y-12682071D01*
X15098928Y-12624929D01*
X15098928Y-12553500D01*
X15113214Y-12496357D01*
X15127500Y-12467786D01*
X15141786Y-12453500D01*
X15170357Y-12439214D01*
X15398928Y-12739214D02*
X15398928Y-12539214D01*
X15398928Y-12567786D02*
X15413214Y-12553500D01*
X15441786Y-12539214D01*
X15484643Y-12539214D01*
X15513214Y-12553500D01*
X15527500Y-12582071D01*
X15527500Y-12739214D01*
X15527500Y-12582071D02*
X15541786Y-12553500D01*
X15570357Y-12539214D01*
X15613214Y-12539214D01*
X15641786Y-12553500D01*
X15656071Y-12582071D01*
X15656071Y-12739214D01*
X15798928Y-12739214D02*
X15798928Y-12539214D01*
X15798928Y-12567786D02*
X15813214Y-12553500D01*
X15841786Y-12539214D01*
X15884643Y-12539214D01*
X15913214Y-12553500D01*
X15927500Y-12582071D01*
X15927500Y-12739214D01*
X15927500Y-12582071D02*
X15941786Y-12553500D01*
X15970357Y-12539214D01*
X16013214Y-12539214D01*
X16041786Y-12553500D01*
X16056071Y-12582071D01*
X16056071Y-12739214D01*
X16641786Y-12424929D02*
X16384643Y-12810643D01*
X17027500Y-12439214D02*
X17056071Y-12439214D01*
X17084643Y-12453500D01*
X17098928Y-12467786D01*
X17113214Y-12496357D01*
X17127500Y-12553500D01*
X17127500Y-12624929D01*
X17113214Y-12682071D01*
X17098928Y-12710643D01*
X17084643Y-12724929D01*
X17056071Y-12739214D01*
X17027500Y-12739214D01*
X16998928Y-12724929D01*
X16984643Y-12710643D01*
X16970357Y-12682071D01*
X16956071Y-12624929D01*
X16956071Y-12553500D01*
X16970357Y-12496357D01*
X16984643Y-12467786D01*
X16998928Y-12453500D01*
X17027500Y-12439214D01*
X17256071Y-12710643D02*
X17270357Y-12724929D01*
X17256071Y-12739214D01*
X17241786Y-12724929D01*
X17256071Y-12710643D01*
X17256071Y-12739214D01*
X17456071Y-12439214D02*
X17484643Y-12439214D01*
X17513214Y-12453500D01*
X17527500Y-12467786D01*
X17541786Y-12496357D01*
X17556071Y-12553500D01*
X17556071Y-12624929D01*
X17541786Y-12682071D01*
X17527500Y-12710643D01*
X17513214Y-12724929D01*
X17484643Y-12739214D01*
X17456071Y-12739214D01*
X17427500Y-12724929D01*
X17413214Y-12710643D01*
X17398928Y-12682071D01*
X17384643Y-12624929D01*
X17384643Y-12553500D01*
X17398928Y-12496357D01*
X17413214Y-12467786D01*
X17427500Y-12453500D01*
X17456071Y-12439214D01*
X17670357Y-12467786D02*
X17684643Y-12453500D01*
X17713214Y-12439214D01*
X17784643Y-12439214D01*
X17813214Y-12453500D01*
X17827500Y-12467786D01*
X17841786Y-12496357D01*
X17841786Y-12524929D01*
X17827500Y-12567786D01*
X17656071Y-12739214D01*
X17841786Y-12739214D01*
X18013214Y-12567786D02*
X17984643Y-12553500D01*
X17970357Y-12539214D01*
X17956071Y-12510643D01*
X17956071Y-12496357D01*
X17970357Y-12467786D01*
X17984643Y-12453500D01*
X18013214Y-12439214D01*
X18070357Y-12439214D01*
X18098928Y-12453500D01*
X18113214Y-12467786D01*
X18127500Y-12496357D01*
X18127500Y-12510643D01*
X18113214Y-12539214D01*
X18098928Y-12553500D01*
X18070357Y-12567786D01*
X18013214Y-12567786D01*
X17984643Y-12582071D01*
X17970357Y-12596357D01*
X17956071Y-12624929D01*
X17956071Y-12682071D01*
X17970357Y-12710643D01*
X17984643Y-12724929D01*
X18013214Y-12739214D01*
X18070357Y-12739214D01*
X18098928Y-12724929D01*
X18113214Y-12710643D01*
X18127500Y-12682071D01*
X18127500Y-12624929D01*
X18113214Y-12596357D01*
X18098928Y-12582071D01*
X18070357Y-12567786D01*
X18241786Y-12439214D02*
X18241786Y-12496357D01*
X18356071Y-12439214D02*
X18356071Y-12496357D01*
X18798928Y-12853500D02*
X18784643Y-12839214D01*
X18756071Y-12796357D01*
X18741786Y-12767786D01*
X18727500Y-12724929D01*
X18713214Y-12653500D01*
X18713214Y-12596357D01*
X18727500Y-12524929D01*
X18741786Y-12482071D01*
X18756071Y-12453500D01*
X18784643Y-12410643D01*
X18798928Y-12396357D01*
X19070357Y-12739214D02*
X18898928Y-12739214D01*
X18984643Y-12739214D02*
X18984643Y-12439214D01*
X18956071Y-12482071D01*
X18927500Y-12510643D01*
X18898928Y-12524929D01*
X19327500Y-12439214D02*
X19270357Y-12439214D01*
X19241786Y-12453500D01*
X19227500Y-12467786D01*
X19198928Y-12510643D01*
X19184643Y-12567786D01*
X19184643Y-12682071D01*
X19198928Y-12710643D01*
X19213214Y-12724929D01*
X19241786Y-12739214D01*
X19298928Y-12739214D01*
X19327500Y-12724929D01*
X19341786Y-12710643D01*
X19356071Y-12682071D01*
X19356071Y-12610643D01*
X19341786Y-12582071D01*
X19327500Y-12567786D01*
X19298928Y-12553500D01*
X19241786Y-12553500D01*
X19213214Y-12567786D01*
X19198928Y-12582071D01*
X19184643Y-12610643D01*
X19713214Y-12739214D02*
X19713214Y-12439214D01*
X19841786Y-12739214D02*
X19841786Y-12582071D01*
X19827500Y-12553500D01*
X19798928Y-12539214D01*
X19756071Y-12539214D01*
X19727500Y-12553500D01*
X19713214Y-12567786D01*
X20027500Y-12739214D02*
X19998928Y-12724929D01*
X19984643Y-12710643D01*
X19970357Y-12682071D01*
X19970357Y-12596357D01*
X19984643Y-12567786D01*
X19998928Y-12553500D01*
X20027500Y-12539214D01*
X20070357Y-12539214D01*
X20098928Y-12553500D01*
X20113214Y-12567786D01*
X20127500Y-12596357D01*
X20127500Y-12682071D01*
X20113214Y-12710643D01*
X20098928Y-12724929D01*
X20070357Y-12739214D01*
X20027500Y-12739214D01*
X20298928Y-12739214D02*
X20270357Y-12724929D01*
X20256071Y-12696357D01*
X20256071Y-12439214D01*
X20527500Y-12724929D02*
X20498928Y-12739214D01*
X20441786Y-12739214D01*
X20413214Y-12724929D01*
X20398928Y-12696357D01*
X20398928Y-12582071D01*
X20413214Y-12553500D01*
X20441786Y-12539214D01*
X20498928Y-12539214D01*
X20527500Y-12553500D01*
X20541786Y-12582071D01*
X20541786Y-12610643D01*
X20398928Y-12639214D01*
X20656071Y-12724929D02*
X20684643Y-12739214D01*
X20741786Y-12739214D01*
X20770357Y-12724929D01*
X20784643Y-12696357D01*
X20784643Y-12682071D01*
X20770357Y-12653500D01*
X20741786Y-12639214D01*
X20698928Y-12639214D01*
X20670357Y-12624929D01*
X20656071Y-12596357D01*
X20656071Y-12582071D01*
X20670357Y-12553500D01*
X20698928Y-12539214D01*
X20741786Y-12539214D01*
X20770357Y-12553500D01*
X20884643Y-12853500D02*
X20898928Y-12839214D01*
X20927500Y-12796357D01*
X20941786Y-12767786D01*
X20956071Y-12724929D01*
X20970357Y-12653500D01*
X20970357Y-12596357D01*
X20956071Y-12524929D01*
X20941786Y-12482071D01*
X20927500Y-12453500D01*
X20898928Y-12410643D01*
X20884643Y-12396357D01*
M02*
