%FSLAX45Y45*%
G04 Gerber Fmt 4.5, Leading zero omitted, Abs format (unit mm)*
G04 Created by KiCad (PCBNEW (5.1.4)-1) date 2025-05-10 17:32:07*
%MOMM*%
%LPD*%
G04 APERTURE LIST*
%ADD10C,0.050000*%
%ADD11C,0.200000*%
%ADD12C,0.300000*%
G04 APERTURE END LIST*
D10*
X18115000Y-11045000D02*
G75*
G02X17915000Y-11245000I-200000J0D01*
G01*
X17915000Y-9745000D02*
G75*
G02X18115000Y-9945000I0J-200000D01*
G01*
X14315000Y-11245000D02*
G75*
G02X14115000Y-11045000I0J200000D01*
G01*
X14115000Y-9945000D02*
G75*
G02X14315000Y-9745000I200000J0D01*
G01*
X16825000Y-10085000D02*
X16825000Y-10885000D01*
X15105000Y-10035000D02*
X16775000Y-10035000D01*
X15055000Y-10885000D02*
X15055000Y-10085000D01*
X16775000Y-10935000D02*
X15105000Y-10935000D01*
X16825000Y-10885000D02*
G75*
G02X16775000Y-10935000I-50000J0D01*
G01*
X16775000Y-10035000D02*
G75*
G02X16825000Y-10085000I0J-50000D01*
G01*
X15055000Y-10085000D02*
G75*
G02X15105000Y-10035000I50000J0D01*
G01*
X15105000Y-10935000D02*
G75*
G02X15055000Y-10885000I0J50000D01*
G01*
X17915000Y-11245000D02*
X14315000Y-11245000D01*
X18115000Y-9945000D02*
X18115000Y-11045000D01*
X14315000Y-9745000D02*
X17915000Y-9745000D01*
X14115000Y-11045000D02*
X14115000Y-9945000D01*
D11*
X17239000Y-10700000D02*
X17459000Y-10920000D01*
X17459000Y-10700000D02*
X17239000Y-10920000D01*
X14296000Y-10695000D02*
X14516000Y-10915000D01*
X14516000Y-10695000D02*
X14296000Y-10915000D01*
D12*
X14398928Y-11713214D02*
X14398928Y-11413214D01*
X14470357Y-11413214D01*
X14513214Y-11427500D01*
X14541786Y-11456071D01*
X14556071Y-11484643D01*
X14570357Y-11541786D01*
X14570357Y-11584643D01*
X14556071Y-11641786D01*
X14541786Y-11670357D01*
X14513214Y-11698929D01*
X14470357Y-11713214D01*
X14398928Y-11713214D01*
X14698928Y-11713214D02*
X14698928Y-11513214D01*
X14698928Y-11570357D02*
X14713214Y-11541786D01*
X14727500Y-11527500D01*
X14756071Y-11513214D01*
X14784643Y-11513214D01*
X14884643Y-11713214D02*
X14884643Y-11513214D01*
X14884643Y-11413214D02*
X14870357Y-11427500D01*
X14884643Y-11441786D01*
X14898928Y-11427500D01*
X14884643Y-11413214D01*
X14884643Y-11441786D01*
X15070357Y-11713214D02*
X15041786Y-11698929D01*
X15027500Y-11670357D01*
X15027500Y-11413214D01*
X15227500Y-11713214D02*
X15198928Y-11698929D01*
X15184643Y-11670357D01*
X15184643Y-11413214D01*
X15570357Y-11713214D02*
X15570357Y-11413214D01*
X15670357Y-11627500D01*
X15770357Y-11413214D01*
X15770357Y-11713214D01*
X16041786Y-11713214D02*
X16041786Y-11556071D01*
X16027500Y-11527500D01*
X15998928Y-11513214D01*
X15941786Y-11513214D01*
X15913214Y-11527500D01*
X16041786Y-11698929D02*
X16013214Y-11713214D01*
X15941786Y-11713214D01*
X15913214Y-11698929D01*
X15898928Y-11670357D01*
X15898928Y-11641786D01*
X15913214Y-11613214D01*
X15941786Y-11598929D01*
X16013214Y-11598929D01*
X16041786Y-11584643D01*
X16184643Y-11513214D02*
X16184643Y-11813214D01*
X16184643Y-11527500D02*
X16213214Y-11513214D01*
X16270357Y-11513214D01*
X16298928Y-11527500D01*
X16313214Y-11541786D01*
X16327500Y-11570357D01*
X16327500Y-11656071D01*
X16313214Y-11684643D01*
X16298928Y-11698929D01*
X16270357Y-11713214D01*
X16213214Y-11713214D01*
X16184643Y-11698929D01*
X16456071Y-11684643D02*
X16470357Y-11698929D01*
X16456071Y-11713214D01*
X16441786Y-11698929D01*
X16456071Y-11684643D01*
X16456071Y-11713214D01*
X16456071Y-11527500D02*
X16470357Y-11541786D01*
X16456071Y-11556071D01*
X16441786Y-11541786D01*
X16456071Y-11527500D01*
X16456071Y-11556071D01*
X13892500Y-12097500D02*
X14112500Y-12317500D01*
X14112500Y-12097500D02*
X13892500Y-12317500D01*
X14384643Y-12071786D02*
X14398928Y-12057500D01*
X14427500Y-12043214D01*
X14498928Y-12043214D01*
X14527500Y-12057500D01*
X14541786Y-12071786D01*
X14556071Y-12100357D01*
X14556071Y-12128929D01*
X14541786Y-12171786D01*
X14370357Y-12343214D01*
X14556071Y-12343214D01*
X14684643Y-12314643D02*
X14698928Y-12328929D01*
X14684643Y-12343214D01*
X14670357Y-12328929D01*
X14684643Y-12314643D01*
X14684643Y-12343214D01*
X14813214Y-12071786D02*
X14827500Y-12057500D01*
X14856071Y-12043214D01*
X14927500Y-12043214D01*
X14956071Y-12057500D01*
X14970357Y-12071786D01*
X14984643Y-12100357D01*
X14984643Y-12128929D01*
X14970357Y-12171786D01*
X14798928Y-12343214D01*
X14984643Y-12343214D01*
X15170357Y-12043214D02*
X15198928Y-12043214D01*
X15227500Y-12057500D01*
X15241786Y-12071786D01*
X15256071Y-12100357D01*
X15270357Y-12157500D01*
X15270357Y-12228929D01*
X15256071Y-12286071D01*
X15241786Y-12314643D01*
X15227500Y-12328929D01*
X15198928Y-12343214D01*
X15170357Y-12343214D01*
X15141786Y-12328929D01*
X15127500Y-12314643D01*
X15113214Y-12286071D01*
X15098928Y-12228929D01*
X15098928Y-12157500D01*
X15113214Y-12100357D01*
X15127500Y-12071786D01*
X15141786Y-12057500D01*
X15170357Y-12043214D01*
X15398928Y-12343214D02*
X15398928Y-12143214D01*
X15398928Y-12171786D02*
X15413214Y-12157500D01*
X15441786Y-12143214D01*
X15484643Y-12143214D01*
X15513214Y-12157500D01*
X15527500Y-12186071D01*
X15527500Y-12343214D01*
X15527500Y-12186071D02*
X15541786Y-12157500D01*
X15570357Y-12143214D01*
X15613214Y-12143214D01*
X15641786Y-12157500D01*
X15656071Y-12186071D01*
X15656071Y-12343214D01*
X15798928Y-12343214D02*
X15798928Y-12143214D01*
X15798928Y-12171786D02*
X15813214Y-12157500D01*
X15841786Y-12143214D01*
X15884643Y-12143214D01*
X15913214Y-12157500D01*
X15927500Y-12186071D01*
X15927500Y-12343214D01*
X15927500Y-12186071D02*
X15941786Y-12157500D01*
X15970357Y-12143214D01*
X16013214Y-12143214D01*
X16041786Y-12157500D01*
X16056071Y-12186071D01*
X16056071Y-12343214D01*
X16641786Y-12028929D02*
X16384643Y-12414643D01*
X17027500Y-12043214D02*
X17056071Y-12043214D01*
X17084643Y-12057500D01*
X17098928Y-12071786D01*
X17113214Y-12100357D01*
X17127500Y-12157500D01*
X17127500Y-12228929D01*
X17113214Y-12286071D01*
X17098928Y-12314643D01*
X17084643Y-12328929D01*
X17056071Y-12343214D01*
X17027500Y-12343214D01*
X16998928Y-12328929D01*
X16984643Y-12314643D01*
X16970357Y-12286071D01*
X16956071Y-12228929D01*
X16956071Y-12157500D01*
X16970357Y-12100357D01*
X16984643Y-12071786D01*
X16998928Y-12057500D01*
X17027500Y-12043214D01*
X17256071Y-12314643D02*
X17270357Y-12328929D01*
X17256071Y-12343214D01*
X17241786Y-12328929D01*
X17256071Y-12314643D01*
X17256071Y-12343214D01*
X17456071Y-12043214D02*
X17484643Y-12043214D01*
X17513214Y-12057500D01*
X17527500Y-12071786D01*
X17541786Y-12100357D01*
X17556071Y-12157500D01*
X17556071Y-12228929D01*
X17541786Y-12286071D01*
X17527500Y-12314643D01*
X17513214Y-12328929D01*
X17484643Y-12343214D01*
X17456071Y-12343214D01*
X17427500Y-12328929D01*
X17413214Y-12314643D01*
X17398928Y-12286071D01*
X17384643Y-12228929D01*
X17384643Y-12157500D01*
X17398928Y-12100357D01*
X17413214Y-12071786D01*
X17427500Y-12057500D01*
X17456071Y-12043214D01*
X17727500Y-12171786D02*
X17698928Y-12157500D01*
X17684643Y-12143214D01*
X17670357Y-12114643D01*
X17670357Y-12100357D01*
X17684643Y-12071786D01*
X17698928Y-12057500D01*
X17727500Y-12043214D01*
X17784643Y-12043214D01*
X17813214Y-12057500D01*
X17827500Y-12071786D01*
X17841786Y-12100357D01*
X17841786Y-12114643D01*
X17827500Y-12143214D01*
X17813214Y-12157500D01*
X17784643Y-12171786D01*
X17727500Y-12171786D01*
X17698928Y-12186071D01*
X17684643Y-12200357D01*
X17670357Y-12228929D01*
X17670357Y-12286071D01*
X17684643Y-12314643D01*
X17698928Y-12328929D01*
X17727500Y-12343214D01*
X17784643Y-12343214D01*
X17813214Y-12328929D01*
X17827500Y-12314643D01*
X17841786Y-12286071D01*
X17841786Y-12228929D01*
X17827500Y-12200357D01*
X17813214Y-12186071D01*
X17784643Y-12171786D01*
X17941786Y-12043214D02*
X18141786Y-12043214D01*
X18013214Y-12343214D01*
X18241786Y-12043214D02*
X18241786Y-12100357D01*
X18356071Y-12043214D02*
X18356071Y-12100357D01*
X18798928Y-12457500D02*
X18784643Y-12443214D01*
X18756071Y-12400357D01*
X18741786Y-12371786D01*
X18727500Y-12328929D01*
X18713214Y-12257500D01*
X18713214Y-12200357D01*
X18727500Y-12128929D01*
X18741786Y-12086071D01*
X18756071Y-12057500D01*
X18784643Y-12014643D01*
X18798928Y-12000357D01*
X18898928Y-12071786D02*
X18913214Y-12057500D01*
X18941786Y-12043214D01*
X19013214Y-12043214D01*
X19041786Y-12057500D01*
X19056071Y-12071786D01*
X19070357Y-12100357D01*
X19070357Y-12128929D01*
X19056071Y-12171786D01*
X18884643Y-12343214D01*
X19070357Y-12343214D01*
X19427500Y-12343214D02*
X19427500Y-12043214D01*
X19556071Y-12343214D02*
X19556071Y-12186071D01*
X19541786Y-12157500D01*
X19513214Y-12143214D01*
X19470357Y-12143214D01*
X19441786Y-12157500D01*
X19427500Y-12171786D01*
X19741786Y-12343214D02*
X19713214Y-12328929D01*
X19698928Y-12314643D01*
X19684643Y-12286071D01*
X19684643Y-12200357D01*
X19698928Y-12171786D01*
X19713214Y-12157500D01*
X19741786Y-12143214D01*
X19784643Y-12143214D01*
X19813214Y-12157500D01*
X19827500Y-12171786D01*
X19841786Y-12200357D01*
X19841786Y-12286071D01*
X19827500Y-12314643D01*
X19813214Y-12328929D01*
X19784643Y-12343214D01*
X19741786Y-12343214D01*
X20013214Y-12343214D02*
X19984643Y-12328929D01*
X19970357Y-12300357D01*
X19970357Y-12043214D01*
X20241786Y-12328929D02*
X20213214Y-12343214D01*
X20156071Y-12343214D01*
X20127500Y-12328929D01*
X20113214Y-12300357D01*
X20113214Y-12186071D01*
X20127500Y-12157500D01*
X20156071Y-12143214D01*
X20213214Y-12143214D01*
X20241786Y-12157500D01*
X20256071Y-12186071D01*
X20256071Y-12214643D01*
X20113214Y-12243214D01*
X20370357Y-12328929D02*
X20398928Y-12343214D01*
X20456071Y-12343214D01*
X20484643Y-12328929D01*
X20498928Y-12300357D01*
X20498928Y-12286071D01*
X20484643Y-12257500D01*
X20456071Y-12243214D01*
X20413214Y-12243214D01*
X20384643Y-12228929D01*
X20370357Y-12200357D01*
X20370357Y-12186071D01*
X20384643Y-12157500D01*
X20413214Y-12143214D01*
X20456071Y-12143214D01*
X20484643Y-12157500D01*
X20598928Y-12457500D02*
X20613214Y-12443214D01*
X20641786Y-12400357D01*
X20656071Y-12371786D01*
X20670357Y-12328929D01*
X20684643Y-12257500D01*
X20684643Y-12200357D01*
X20670357Y-12128929D01*
X20656071Y-12086071D01*
X20641786Y-12057500D01*
X20613214Y-12014643D01*
X20598928Y-12000357D01*
X21141786Y-12457500D02*
X21127500Y-12443214D01*
X21098928Y-12400357D01*
X21084643Y-12371786D01*
X21070357Y-12328929D01*
X21056071Y-12257500D01*
X21056071Y-12200357D01*
X21070357Y-12128929D01*
X21084643Y-12086071D01*
X21098928Y-12057500D01*
X21127500Y-12014643D01*
X21141786Y-12000357D01*
X21256071Y-12143214D02*
X21256071Y-12343214D01*
X21256071Y-12171786D02*
X21270357Y-12157500D01*
X21298928Y-12143214D01*
X21341786Y-12143214D01*
X21370357Y-12157500D01*
X21384643Y-12186071D01*
X21384643Y-12343214D01*
X21570357Y-12343214D02*
X21541786Y-12328929D01*
X21527500Y-12314643D01*
X21513214Y-12286071D01*
X21513214Y-12200357D01*
X21527500Y-12171786D01*
X21541786Y-12157500D01*
X21570357Y-12143214D01*
X21613214Y-12143214D01*
X21641786Y-12157500D01*
X21656071Y-12171786D01*
X21670357Y-12200357D01*
X21670357Y-12286071D01*
X21656071Y-12314643D01*
X21641786Y-12328929D01*
X21613214Y-12343214D01*
X21570357Y-12343214D01*
X21756071Y-12143214D02*
X21870357Y-12143214D01*
X21798928Y-12043214D02*
X21798928Y-12300357D01*
X21813214Y-12328929D01*
X21841786Y-12343214D01*
X21870357Y-12343214D01*
X22198928Y-12143214D02*
X22198928Y-12443214D01*
X22198928Y-12157500D02*
X22227500Y-12143214D01*
X22284643Y-12143214D01*
X22313214Y-12157500D01*
X22327500Y-12171786D01*
X22341786Y-12200357D01*
X22341786Y-12286071D01*
X22327500Y-12314643D01*
X22313214Y-12328929D01*
X22284643Y-12343214D01*
X22227500Y-12343214D01*
X22198928Y-12328929D01*
X22513214Y-12343214D02*
X22484643Y-12328929D01*
X22470357Y-12300357D01*
X22470357Y-12043214D01*
X22756071Y-12343214D02*
X22756071Y-12186071D01*
X22741786Y-12157500D01*
X22713214Y-12143214D01*
X22656071Y-12143214D01*
X22627500Y-12157500D01*
X22756071Y-12328929D02*
X22727500Y-12343214D01*
X22656071Y-12343214D01*
X22627500Y-12328929D01*
X22613214Y-12300357D01*
X22613214Y-12271786D01*
X22627500Y-12243214D01*
X22656071Y-12228929D01*
X22727500Y-12228929D01*
X22756071Y-12214643D01*
X22856071Y-12143214D02*
X22970357Y-12143214D01*
X22898928Y-12043214D02*
X22898928Y-12300357D01*
X22913214Y-12328929D01*
X22941786Y-12343214D01*
X22970357Y-12343214D01*
X23184643Y-12328929D02*
X23156071Y-12343214D01*
X23098928Y-12343214D01*
X23070357Y-12328929D01*
X23056071Y-12300357D01*
X23056071Y-12186071D01*
X23070357Y-12157500D01*
X23098928Y-12143214D01*
X23156071Y-12143214D01*
X23184643Y-12157500D01*
X23198928Y-12186071D01*
X23198928Y-12214643D01*
X23056071Y-12243214D01*
X23456071Y-12343214D02*
X23456071Y-12043214D01*
X23456071Y-12328929D02*
X23427500Y-12343214D01*
X23370357Y-12343214D01*
X23341786Y-12328929D01*
X23327500Y-12314643D01*
X23313214Y-12286071D01*
X23313214Y-12200357D01*
X23327500Y-12171786D01*
X23341786Y-12157500D01*
X23370357Y-12143214D01*
X23427500Y-12143214D01*
X23456071Y-12157500D01*
X23570357Y-12457500D02*
X23584643Y-12443214D01*
X23613214Y-12400357D01*
X23627500Y-12371786D01*
X23641786Y-12328929D01*
X23656071Y-12257500D01*
X23656071Y-12200357D01*
X23641786Y-12128929D01*
X23627500Y-12086071D01*
X23613214Y-12057500D01*
X23584643Y-12014643D01*
X23570357Y-12000357D01*
M02*
