M48
; DRILL file {KiCad (5.1.4)-1} date 5/10/2025 5:32:06 PM
; FORMAT={-:-/ absolute / metric / decimal}
; #@! TF.CreationDate,2025-05-10T17:32:06-04:00
; #@! TF.GenerationSoftware,Kicad,Pcbnew,(5.1.4)-1
; #@! TF.FileFunction,Plated,1,2,PTH
FMAT,2
METRIC
T1C0.400
T2C0.700
%
G90
G05
T1
X147.05Y-104.6
X147.15Y-108.85
X147.171Y-110.479
X148.16Y-106.25
X149.0Y-101.3
X149.45Y-105.95
X169.7Y-104.36
X174.35Y-99.6
X176.25Y-99.55
X176.492Y-105.75
X177.38Y-99.36
T2
X153.4Y-110.2
X154.29Y-99.5
X155.18Y-110.2
X156.07Y-99.5
X156.96Y-110.2
X157.85Y-99.5
X158.74Y-110.2
X159.63Y-99.5
X160.52Y-110.2
X161.41Y-99.5
X162.3Y-110.2
X163.19Y-99.5
X164.08Y-110.2
X164.97Y-99.5
X165.86Y-110.2
X166.75Y-99.5
T0
M30
